<?xml version="1.0" encoding="UTF-8" standalone="no"?>
<svg
   xmlns:dc="http://purl.org/dc/elements/1.1/"
   xmlns:cc="http://creativecommons.org/ns#"
   xmlns:rdf="http://www.w3.org/1999/02/22-rdf-syntax-ns#"
   xmlns:svg="http://www.w3.org/2000/svg"
   xmlns="http://www.w3.org/2000/svg"
   xmlns:sodipodi="http://sodipodi.sourceforge.net/DTD/sodipodi-0.dtd"
   xmlns:inkscape="http://www.inkscape.org/namespaces/inkscape"
   id="logo"
   class="header__logo"
   viewBox="0 0 1000 266.57263"
   version="1.1"
   sodipodi:docname="optimised.svg"
   width="1000"
   height="266.57263"
   inkscape:version="0.92.4 (5da689c313, 2019-01-14)">
  <metadata
     id="metadata3770">
    <rdf:RDF>
      <cc:Work
         rdf:about="">
        <dc:format>image/svg+xml</dc:format>
        <dc:type
           rdf:resource="http://purl.org/dc/dcmitype/StillImage" />
        <dc:title>
    Samaritans
  </dc:title>
      </cc:Work>
    </rdf:RDF>
  </metadata>
  <defs
     id="defs3768" />
  <sodipodi:namedview
     pagecolor="#ffffff"
     bordercolor="#666666"
     borderopacity="1"
     objecttolerance="10"
     gridtolerance="10"
     guidetolerance="10"
     inkscape:pageopacity="0"
     inkscape:pageshadow="2"
     inkscape:window-width="1014"
     inkscape:window-height="1020"
     id="namedview3766"
     showgrid="false"
     fit-margin-top="0"
     fit-margin-left="0"
     fit-margin-right="0"
     fit-margin-bottom="0"
     inkscape:zoom="0.36734979"
     inkscape:cx="532.24108"
     inkscape:cy="57.794236"
     inkscape:window-x="898"
     inkscape:window-y="-8"
     inkscape:window-maximized="0"
     inkscape:current-layer="logo" />
  <title
     id="title3741">
    Samaritans
  </title>
  <path
     d="m 95.909732,0 v 41.37283 c 0,4.70146 -3.761166,7.99248 -7.992478,7.99248 -4.701457,0 -7.992477,-3.76117 -7.992477,-7.99248 V 0 H 0 v 266.57264 h 904.09027 v -41.37283 c 0,-4.70145 3.76116,-7.99247 7.99248,-7.99247 4.70145,0 7.99247,3.76116 7.99247,7.99247 v 41.37283 H 1000 V 0 Z"
     id="path3743"
     inkscape:connector-curvature="0"
     style="fill:#8bbe29;stroke-width:4.7014575" />
  <path
     d="m 523.74236,141.51387 c 7.52233,-2.35073 11.2835,-7.05218 14.10437,-11.75364 2.82088,-4.70146 4.23131,-9.87306 4.23131,-15.98496 0,-9.87306 -3.29102,-17.86554 -9.87306,-23.50728 -6.58204,-5.64175 -15.98495,-8.46263 -27.26845,-8.46263 h -29.61918 c -4.70146,0 -7.99248,3.29102 -7.99248,7.99248 v 93.559 h 21.6267 v -36.20122 h 11.75365 c 0.94029,0 2.35073,0 3.76116,0 l 22.09685,36.20122 h 23.97744 z m -3.29102,-27.26845 c 0,10.3432 -6.58204,15.04466 -19.74612,15.04466 H 488.48143 V 98.73061 h 12.22379 c 13.16408,0.47014 19.74612,5.1716 19.74612,15.51481"
     id="path3745"
     inkscape:connector-curvature="0"
     style="fill:#ffffff;stroke-width:4.7014575" />
  <path
     d="m 568.40621,81.80536 c -4.70146,0 -7.99248,3.29102 -7.99248,7.99248 v 93.559 h 21.6267 V 81.80536 Z"
     id="path3747"
     inkscape:connector-curvature="0"
     style="fill:#ffffff;stroke-width:4.7014575" />
  <path
     d="m 792.19558,81.80536 h -11.75364 c -4.70146,0 -7.99248,3.29102 -7.99248,7.99248 v 93.559 h 20.68641 v -66.76069 l 51.24589,66.76069 h 18.80583 V 81.80536 h -20.68641 v 65.82041 z"
     id="path3749"
     inkscape:connector-curvature="0"
     style="fill:#ffffff;stroke-width:4.7014575" />
  <path
     d="m 676.53973,81.80536 h -76.16361 c -4.70146,0 -7.99248,3.29102 -7.99248,7.99248 v 9.87306 h 31.02962 v 83.68594 h 21.6267 V 99.6709 h 31.49977 z"
     id="path3751"
     inkscape:connector-curvature="0"
     style="fill:#ffffff;stroke-width:4.7014575" />
  <path
     d="m 207.33427,183.35684 h 23.03715 L 190.40903,82.27551 v -0.47015 h -22.09685 l -39.96239,100.61119 -0.94029,0.94029 h 21.6267 l 8.93277,-24.91772 h 39.96239 z m -42.31311,-42.78326 13.16408,-36.20122 13.16408,36.20122 c 0,0 -26.32816,0 -26.32816,0 z"
     id="path3753"
     inkscape:connector-curvature="0"
     style="fill:#ffffff;stroke-width:4.7014575" />
  <path
     d="m 434.41467,183.35684 h 23.03714 L 417.48942,82.27551 v -0.47015 h -22.56699 l -40.43254,101.55148 h 21.62671 l 8.93277,-24.91772 h 39.96238 z m -42.31312,-42.78326 13.16408,-36.20122 13.16408,36.20122 c 0,0 -26.32816,0 -26.32816,0 z"
     id="path3755"
     inkscape:connector-curvature="0"
     style="fill:#ffffff;stroke-width:4.7014575" />
  <path
     d="m 740.0094,183.35684 h 23.03714 L 723.08416,82.27551 v -0.47015 h -22.567 l -39.96239,100.61119 -0.47014,0.94029 h 21.6267 l 8.93277,-24.91772 h 39.96239 z m -42.31311,-42.78326 13.16408,-36.20122 13.16408,36.20122 c 0,0 -26.32816,0 -26.32816,0 z"
     id="path3757"
     inkscape:connector-curvature="0"
     style="fill:#ffffff;stroke-width:4.7014575" />
  <path
     d="m 283.49788,153.26751 c 1.88059,2.82088 4.70146,5.64175 8.46263,5.64175 3.76116,0 6.58204,-2.35072 8.46262,-5.64175 l 24.91773,-37.61165 v 67.70098 h 20.68641 V 81.80536 H 324.87071 L 292.43065,130.70052 259.9906,81.80536 h -14.10438 c -4.70145,0 -7.99247,3.29102 -7.99247,7.99248 v 93.559 h 20.21626 V 116.126 Z"
     id="path3759"
     inkscape:connector-curvature="0"
     style="fill:#ffffff;stroke-width:4.7014575" />
  <path
     d="m 49.835449,176.7748 c 9.873061,7.52233 23.507287,10.34321 35.731077,10.34321 12.223789,0 21.626704,-2.82088 28.678894,-8.46262 7.05218,-5.64175 10.81335,-13.16409 11.28349,-23.03715 0.47015,-7.99247 -1.88058,-15.51481 -8.93277,-21.6267 -4.70145,-3.76117 -11.28349,-6.58204 -20.216262,-9.87306 -3.761166,-1.41044 -12.693935,-4.23131 -15.51481,-5.64175 -2.350729,-1.41044 -6.58204,-4.70146 -6.58204,-9.40291 0,-6.58205 6.111894,-11.2835 16.455101,-11.2835 9.873061,0 19.275971,2.82087 26.798311,8.46262 l 2.82087,-7.05219 c 1.41044,-4.23131 2.35073,-7.99247 1.41044,-10.81335 -1.88058,-3.76116 -8.93277,-6.11189 -14.57452,-7.52233 -5.64175,-1.41044 -10.343206,-1.88058 -16.925247,-1.88058 -7.522332,0 -14.104372,1.41043 -19.746121,3.76116 -5.641749,2.35073 -9.873061,6.1119 -13.164081,10.34321 -2.820875,4.70146 -4.701458,9.87306 -4.701458,15.51481 0,7.99248 2.350729,14.57452 7.052187,19.74612 4.701457,4.70146 11.753643,7.99248 23.977433,12.69394 6.111894,2.35072 13.164081,4.70145 15.514809,7.05218 2.820878,1.88058 4.231308,4.70146 4.231308,7.99248 0,7.52233 -7.052182,12.22379 -18.805826,12.22379 -11.753643,0 -21.626704,-4.70146 -28.208745,-10.34321 z"
     id="path3761"
     inkscape:connector-curvature="0"
     style="fill:#ffffff;stroke-width:4.7014575" />
  <path
     d="m 874.47109,176.7748 c 9.87306,7.52233 23.50728,10.34321 35.73107,10.34321 12.22379,0 21.62671,-2.82088 28.67889,-8.46262 7.05219,-5.64175 10.81336,-13.16409 11.2835,-23.03715 0.47015,-7.99247 -1.88058,-15.51481 -8.93277,-21.6267 -4.70146,-3.76117 -11.2835,-6.58204 -20.21627,-9.87306 -3.76116,-1.41044 -12.69393,-4.23131 -15.5148,-5.64175 -2.35073,-1.41044 -6.58205,-4.70146 -6.58205,-9.40291 0,-6.58205 6.1119,-11.2835 16.45511,-11.2835 9.87306,0 19.27597,2.82087 26.7983,8.46262 l 2.82088,-7.05219 c 1.41044,-4.23131 2.35073,-7.99247 1.41044,-10.81335 -1.88059,-3.76116 -8.93277,-6.11189 -14.57452,-7.52233 -5.64175,-1.41044 -10.34321,-1.88058 -16.92525,-1.88058 -7.52233,0 -14.10437,1.41043 -19.74612,3.76116 -5.64175,2.35073 -9.87306,6.1119 -13.16408,10.34321 -2.82088,4.70146 -4.70146,9.87306 -4.70146,15.51481 0,7.99248 2.35073,14.57452 7.05219,19.74612 4.70145,4.70146 11.75364,7.99248 23.97743,12.69394 6.11189,2.35072 13.16408,4.70145 15.51481,7.05218 2.82087,1.88058 4.23131,4.70146 4.23131,7.99248 0,7.52233 -7.52233,12.22379 -18.80583,12.22379 -11.75364,0 -21.6267,-4.70146 -28.20874,-10.34321 z"
     id="path3763"
     inkscape:connector-curvature="0"
     style="fill:#ffffff;stroke-width:4.7014575" />
</svg>
