<svg xmlns="http://www.w3.org/2000/svg" viewBox="0 0 172 106.41699981689453"><g fill="none" fill-rule="evenodd"><path d="M.563 82.25c-.371 0-.563-.192-.563-.563V61.725c0-.371.192-.563.563-.563h4.105c.358 0 .563.192.563.563v7.139c0 .37.192.563.562.563h6.66c.37 0 .562-.192.562-.563v-7.139c0-.371.193-.563.563-.563h4.105c.37 0 .563.192.563.563v19.962c0 .37-.192.563-.563.563h-4.105c-.37 0-.563-.192-.563-.563v-7.194c0-.37-.192-.562-.563-.562H5.793c-.37 0-.562.191-.562.562v7.194c0 .37-.205.563-.563.563H.563ZM31.695 73.024c.398 0 .59-.247.398-.59-.563-.893-1.496-1.4-2.787-1.4-1.29 0-2.25.453-2.814 1.4-.192.343 0 .59.37.59h4.833Zm-10.819 1.977c0-4.53 3.446-7.564 8.457-7.564 4.915 0 8.403 3.034 8.403 7.537 0 .22 0 .44-.028.673-.027.302-.22.48-.535.48H26.684c-.357 0-.55.22-.413.59.537 1.263 1.69 1.909 3.035 1.909 1.098 0 1.99-.454 2.553-1.263.207-.289.399-.371.714-.234l3.598 1.552c.302.136.438.329.302.507-1.209 1.771-3.57 3.337-7.14 3.337-5.395 0-8.457-3.309-8.457-7.524ZM45.225 81.742c0 .316-.193.508-.508.508h-4.05c-.302 0-.494-.192-.494-.508V61.67c0-.316.192-.508.494-.508h4.05c.315 0 .508.192.508.508v20.072ZM53.067 74.987c0 2.06 1.524 3.377 3.377 3.377 1.881 0 3.378-1.262 3.378-3.377 0-2.128-1.497-3.39-3.378-3.39-1.853 0-3.377 1.317-3.377 3.39m11.807 0c0 4.311-3.144 7.537-7.304 7.537-1.345 0-2.581-.329-3.624-1.152-.343-.248-.591-.138-.591.288v6.63c0 .316-.206.509-.508.509h-4.05c-.315 0-.508-.193-.508-.509V68.22c0-.317.193-.509.509-.509h4.05c.301 0 .507.192.507.508v.082c0 .426.248.536.618.247 1.044-.783 2.28-1.112 3.597-1.112 4.16 0 7.304 3.255 7.304 7.551M73.696 80.731c1.125 0 2.278-1.18 3.347-2.756.956-1.462 1.603-2.756 2.25-4.358-.114-.844-.731-1.35-1.8-1.35-2.194 0-5.119 3.57-5.119 6.777 0 1.125.563 1.687 1.322 1.687m3.853-10.236c1.182 0 2.025.478 2.56 1.434.365-.871 1.125-1.434 1.8-1.434.674 0 1.068.393 1.068.956 0 .394-.338 1.04-1.153 2.363-1.069 2.361-1.913 4.358-1.913 5.792 0 .872.366 1.266.815 1.266 1.182 0 2.672-1.8 3.938-3.768.366-.59.703-1.013 1.238-1.013.562 0 1.04.394 1.04.9 0 .197-.056.394-.169.562-1.716 2.644-3.965 4.978-6.384 4.978-1.546 0-2.84-.843-3.065-2.418-1.237 1.434-2.699 2.418-4.219 2.418-2.137 0-3.655-1.266-3.655-3.6 0-4.19 4.218-8.436 8.1-8.436" fill="#FFF"></path><path d="M92.87 76.091c.562 0 1.041.394 1.041.9 0 .197-.056.394-.169.562-1.715 2.645-3.993 4.979-6.411 4.979-2.053 0-3.347-1.07-3.347-3.15 0-1.688 1.041-4.472 2.278-7.228h-.872c-.619 0-1.012-.253-1.012-.844 0-.562.393-.815 1.012-.815h1.631l1.463-2.84c.927-1.8 1.715-2.391 2.306-2.391.703 0 1.153.393 1.153.985 0 .421-.394 1.152-1.097 2.278l-.985 1.968h1.21c.618 0 .984.338.984.787 0 .59-.393.872-.985.872h-2.024c-1.321 2.84-2.447 5.71-2.447 7.425 0 .928.45 1.293 1.069 1.293 1.181 0 2.7-1.8 3.965-3.768.366-.59.703-1.013 1.237-1.013M99.215 82.25c-.37 0-.563-.192-.563-.563V61.725c0-.371.192-.563.563-.563h4.105c.358 0 .564.192.564.563v7.139c0 .37.191.563.562.563h6.659c.37 0 .563-.192.563-.563v-7.139c0-.371.192-.563.562-.563h4.105c.371 0 .564.192.564.563v19.962c0 .37-.193.563-.564.563h-4.105c-.37 0-.562-.192-.562-.563v-7.194c0-.37-.193-.562-.563-.562h-6.66c-.37 0-.561.191-.561.562v7.194c0 .37-.206.563-.564.563h-4.105ZM131.336 74.974c0-2.06-1.524-3.377-3.377-3.377-1.882 0-3.377 1.262-3.377 3.377 0 2.128 1.495 3.39 3.377 3.39 1.853 0 3.377-1.317 3.377-3.39m-11.808 0c0-4.311 3.144-7.537 7.305-7.537 1.345 0 2.58.329 3.624 1.152.343.248.59.193.59-.178v-.192c0-.302.206-.508.508-.508h4.05c.317 0 .509.206.509.508v13.523c0 .315-.192.508-.509.508h-4.05c-.302 0-.507-.193-.507-.508v-.082c0-.426-.248-.535-.618-.247-1.044.783-2.28 1.112-3.597 1.112-4.16 0-7.305-3.255-7.305-7.551M139.649 82.25c-.302 0-.495-.192-.495-.508V68.22c0-.302.193-.508.495-.508h4.05c.316 0 .508.206.508.508v.22c0 .425.26.562.59.26.96-.851 2.17-1.262 3.57-1.262 3.295 0 4.723 1.852 4.723 5.024v9.281c0 .316-.193.508-.495.508h-4.05c-.316 0-.508-.192-.508-.508v-8.21c0-1.688-.7-1.963-1.717-1.963-1.262 0-2.113.782-2.113 2.526v7.647c0 .316-.192.508-.508.508h-4.05ZM167.223 74.974c0-2.06-1.524-3.377-3.378-3.377-1.88 0-3.377 1.262-3.377 3.377 0 2.128 1.497 3.39 3.377 3.39 1.854 0 3.378-1.317 3.378-3.39m-11.808 0c0-4.311 3.145-7.537 7.305-7.537 1.346 0 2.58.329 3.624 1.152.343.248.59.138.59-.288v-6.63c0-.316.206-.509.509-.509h4.05c.315 0 .507.193.507.509v20.07c0 .316-.192.509-.508.509h-4.05c-.302 0-.507-.193-.507-.508v-.082c0-.426-.248-.535-.618-.247-1.044.783-2.28 1.112-3.597 1.112-4.16 0-7.305-3.255-7.305-7.551" fill="#FFF"></path><path d="M85.838 106.417a24.94 24.94 0 0 1-18.277-8.007 3.06 3.06 0 1 1 4.498-4.15 18.8 18.8 0 0 0 13.779 6.036c5.216 0 10.059-2.091 13.638-5.887a3.06 3.06 0 0 1 4.454 4.199 24.964 24.964 0 0 1-18.092 7.809M62.458 17.508 68.55 54.58a5.069 5.069 0 0 0 2.063 3.312 5.073 5.073 0 0 0 3.8.896 5.068 5.068 0 0 0 3.312-2.065 5.064 5.064 0 0 0 .896-3.799l-6.092-37.07a5.067 5.067 0 0 0-2.064-3.313 5.079 5.079 0 0 0-3.8-.897 5.11 5.11 0 0 0-4.207 5.864M98.833 12.76l-5.271 32.07a5.11 5.11 0 0 0 4.208 5.864 5.108 5.108 0 0 0 5.863-4.208l5.27-32.07a5.11 5.11 0 0 0-5.037-5.932 5.111 5.111 0 0 0-5.033 4.276M85.885 0a5.108 5.108 0 0 0-5.104 5.103v44.18a5.108 5.108 0 0 0 5.104 5.103 5.109 5.109 0 0 0 5.103-5.103V5.103A5.109 5.109 0 0 0 85.885 0M121.302 22.944a5.069 5.069 0 0 0-3.903-.009 5.065 5.065 0 0 0-2.776 2.744l-7.438 18.009a5.064 5.064 0 0 0-.01 3.903 5.07 5.07 0 0 0 2.745 2.776 5.069 5.069 0 0 0 3.903.009 5.062 5.062 0 0 0 2.775-2.745l7.44-18.008a5.109 5.109 0 0 0-2.736-6.68M57.73 34.881a5.059 5.059 0 0 0-3.904-.038 5.11 5.11 0 0 0-2.813 6.646l3.932 9.71a5.109 5.109 0 0 0 6.644 2.814h.001a5.068 5.068 0 0 0 2.777-2.743 5.066 5.066 0 0 0 .037-3.902l-3.932-9.71a5.064 5.064 0 0 0-2.742-2.777" fill="#00A981"></path></g></svg>