<?xml version="1.0" encoding="utf-8"?>
<!-- Generator: Adobe Illustrator 27.7.0, SVG Export Plug-In . SVG Version: 6.00 Build 0)  -->
<svg version="1.1" id="Layer_1" xmlns="http://www.w3.org/2000/svg" xmlns:xlink="http://www.w3.org/1999/xlink" x="0px" y="0px"
	 viewBox="0 0 172 106.4" style="enable-background:new 0 0 172 106.4;" xml:space="preserve">
<style type="text/css">
	.st0{fill-rule:evenodd;clip-rule:evenodd;fill:#081F56;}
	.st1{fill-rule:evenodd;clip-rule:evenodd;fill:#00A981;}
</style>
<g>
	<path class="st0" d="M0.6,82.2c-0.4,0-0.6-0.2-0.6-0.6v-20c0-0.4,0.2-0.6,0.6-0.6h4.1c0.4,0,0.6,0.2,0.6,0.6v7.1
		c0,0.4,0.2,0.6,0.6,0.6h6.7c0.4,0,0.6-0.2,0.6-0.6v-7.1c0-0.4,0.2-0.6,0.6-0.6h4.1c0.4,0,0.6,0.2,0.6,0.6v20c0,0.4-0.2,0.6-0.6,0.6
		h-4.1c-0.4,0-0.6-0.2-0.6-0.6v-7.2c0-0.4-0.2-0.6-0.6-0.6H5.8c-0.4,0-0.6,0.2-0.6,0.6v7.2c0,0.4-0.2,0.6-0.6,0.6H0.6z M31.7,73
		c0.4,0,0.6-0.2,0.4-0.6c-0.6-0.9-1.5-1.4-2.8-1.4c-1.3,0-2.2,0.5-2.8,1.4c-0.2,0.3,0,0.6,0.4,0.6H31.7z M20.9,75
		c0-4.5,3.4-7.6,8.5-7.6c4.9,0,8.4,3,8.4,7.5c0,0.2,0,0.4,0,0.7c0,0.3-0.2,0.5-0.5,0.5H26.7c-0.4,0-0.5,0.2-0.4,0.6
		c0.5,1.3,1.7,1.9,3,1.9c1.1,0,2-0.5,2.6-1.3c0.2-0.3,0.4-0.4,0.7-0.2l3.6,1.6c0.3,0.1,0.4,0.3,0.3,0.5c-1.2,1.8-3.6,3.3-7.1,3.3
		C23.9,82.5,20.9,79.2,20.9,75z M45.2,81.7c0,0.3-0.2,0.5-0.5,0.5h-4c-0.3,0-0.5-0.2-0.5-0.5V61.7c0-0.3,0.2-0.5,0.5-0.5h4
		c0.3,0,0.5,0.2,0.5,0.5V81.7z M53.1,75c0,2.1,1.5,3.4,3.4,3.4c1.9,0,3.4-1.3,3.4-3.4c0-2.1-1.5-3.4-3.4-3.4
		C54.6,71.6,53.1,72.9,53.1,75 M64.9,75c0,4.3-3.1,7.5-7.3,7.5c-1.3,0-2.6-0.3-3.6-1.2c-0.3-0.2-0.6-0.1-0.6,0.3v6.6
		c0,0.3-0.2,0.5-0.5,0.5h-4c-0.3,0-0.5-0.2-0.5-0.5V68.2c0-0.3,0.2-0.5,0.5-0.5h4c0.3,0,0.5,0.2,0.5,0.5v0.1c0,0.4,0.2,0.5,0.6,0.2
		c1-0.8,2.3-1.1,3.6-1.1C61.7,67.4,64.9,70.7,64.9,75 M73.7,80.7c1.1,0,2.3-1.2,3.3-2.8c1-1.5,1.6-2.8,2.2-4.4
		c-0.1-0.8-0.7-1.3-1.8-1.3c-2.2,0-5.1,3.6-5.1,6.8C72.4,80.2,72.9,80.7,73.7,80.7 M77.5,70.5c1.2,0,2,0.5,2.6,1.4
		c0.4-0.9,1.1-1.4,1.8-1.4c0.7,0,1.1,0.4,1.1,1c0,0.4-0.3,1-1.2,2.4c-1.1,2.4-1.9,4.4-1.9,5.8c0,0.9,0.4,1.3,0.8,1.3
		c1.2,0,2.7-1.8,3.9-3.8c0.4-0.6,0.7-1,1.2-1c0.6,0,1,0.4,1,0.9c0,0.2-0.1,0.4-0.2,0.6c-1.7,2.6-4,5-6.4,5c-1.5,0-2.8-0.8-3.1-2.4
		c-1.2,1.4-2.7,2.4-4.2,2.4c-2.1,0-3.7-1.3-3.7-3.6C69.4,74.7,73.7,70.5,77.5,70.5"/>
	<path class="st0" d="M92.9,76.1c0.6,0,1,0.4,1,0.9c0,0.2-0.1,0.4-0.2,0.6c-1.7,2.6-4,5-6.4,5c-2.1,0-3.3-1.1-3.3-3.2
		c0-1.7,1-4.5,2.3-7.2h-0.9c-0.6,0-1-0.3-1-0.8c0-0.6,0.4-0.8,1-0.8H87l1.5-2.8c0.9-1.8,1.7-2.4,2.3-2.4c0.7,0,1.2,0.4,1.2,1
		c0,0.4-0.4,1.2-1.1,2.3l-1,2h1.2c0.6,0,1,0.3,1,0.8c0,0.6-0.4,0.9-1,0.9h-2c-1.3,2.8-2.4,5.7-2.4,7.4c0,0.9,0.4,1.3,1.1,1.3
		c1.2,0,2.7-1.8,4-3.8C92,76.5,92.3,76.1,92.9,76.1 M99.2,82.2c-0.4,0-0.6-0.2-0.6-0.6v-20c0-0.4,0.2-0.6,0.6-0.6h4.1
		c0.4,0,0.6,0.2,0.6,0.6v7.1c0,0.4,0.2,0.6,0.6,0.6h6.7c0.4,0,0.6-0.2,0.6-0.6v-7.1c0-0.4,0.2-0.6,0.6-0.6h4.1
		c0.4,0,0.6,0.2,0.6,0.6v20c0,0.4-0.2,0.6-0.6,0.6h-4.1c-0.4,0-0.6-0.2-0.6-0.6v-7.2c0-0.4-0.2-0.6-0.6-0.6h-6.7
		c-0.4,0-0.6,0.2-0.6,0.6v7.2c0,0.4-0.2,0.6-0.6,0.6C103.3,82.2,99.2,82.2,99.2,82.2z M131.3,75c0-2.1-1.5-3.4-3.4-3.4
		c-1.9,0-3.4,1.3-3.4,3.4c0,2.1,1.5,3.4,3.4,3.4C129.8,78.4,131.3,77,131.3,75 M119.5,75c0-4.3,3.1-7.5,7.3-7.5
		c1.3,0,2.6,0.3,3.6,1.2c0.3,0.2,0.6,0.2,0.6-0.2v-0.2c0-0.3,0.2-0.5,0.5-0.5h4.1c0.3,0,0.5,0.2,0.5,0.5v13.5c0,0.3-0.2,0.5-0.5,0.5
		h-4.1c-0.3,0-0.5-0.2-0.5-0.5v-0.1c0-0.4-0.2-0.5-0.6-0.2c-1,0.8-2.3,1.1-3.6,1.1C122.7,82.5,119.5,79.3,119.5,75 M139.6,82.2
		c-0.3,0-0.5-0.2-0.5-0.5V68.2c0-0.3,0.2-0.5,0.5-0.5h4.1c0.3,0,0.5,0.2,0.5,0.5v0.2c0,0.4,0.3,0.6,0.6,0.3c1-0.9,2.2-1.3,3.6-1.3
		c3.3,0,4.7,1.9,4.7,5v9.3c0,0.3-0.2,0.5-0.5,0.5h-4.1c-0.3,0-0.5-0.2-0.5-0.5v-8.2c0-1.7-0.7-2-1.7-2c-1.3,0-2.1,0.8-2.1,2.5v7.6
		c0,0.3-0.2,0.5-0.5,0.5L139.6,82.2L139.6,82.2z M167.2,75c0-2.1-1.5-3.4-3.4-3.4c-1.9,0-3.4,1.3-3.4,3.4c0,2.1,1.5,3.4,3.4,3.4
		C165.7,78.4,167.2,77,167.2,75 M155.4,75c0-4.3,3.1-7.5,7.3-7.5c1.3,0,2.6,0.3,3.6,1.2c0.3,0.2,0.6,0.1,0.6-0.3v-6.6
		c0-0.3,0.2-0.5,0.5-0.5h4.1c0.3,0,0.5,0.2,0.5,0.5v20.1c0,0.3-0.2,0.5-0.5,0.5h-4.1c-0.3,0-0.5-0.2-0.5-0.5v-0.1
		c0-0.4-0.2-0.5-0.6-0.2c-1,0.8-2.3,1.1-3.6,1.1C158.6,82.5,155.4,79.3,155.4,75"/>
	<path class="st1" d="M85.8,106.4c-6.9,0-13.6-2.9-18.3-8c-1.1-1.2-1.1-3.2,0.2-4.3c1.2-1.1,3.2-1.1,4.3,0.2c3.6,3.8,8.5,6,13.8,6
		c5.2,0,10.1-2.1,13.6-5.9c1.2-1.2,3.1-1.3,4.3-0.1s1.3,3.1,0.1,4.3C99.2,103.6,92.7,106.4,85.8,106.4 M62.5,17.5l6.1,37.1
		c0.2,1.3,1,2.5,2.1,3.3c1.1,0.8,2.5,1.1,3.8,0.9c1.3-0.2,2.5-1,3.3-2.1c0.8-1.1,1.1-2.5,0.9-3.8l-6.1-37.1c-0.2-1.3-1-2.5-2.1-3.3
		c-1.1-0.8-2.5-1.1-3.8-0.9C63.9,12.1,62,14.7,62.5,17.5 M98.8,12.8l-5.3,32.1c-0.5,2.8,1.4,5.4,4.2,5.9c2.8,0.5,5.4-1.4,5.9-4.2
		l5.3-32.1c0.5-2.8-1.4-5.4-4.2-5.9c-0.3,0-0.5-0.1-0.8-0.1C101.4,8.5,99.2,10.3,98.8,12.8 M85.9,0c-2.8,0-5.1,2.3-5.1,5.1v44.2
		c0,2.8,2.3,5.1,5.1,5.1c2.8,0,5.1-2.3,5.1-5.1V5.1C91,2.3,88.7,0,85.9,0 M121.3,22.9c-1.2-0.5-2.7-0.5-3.9,0
		c-1.3,0.5-2.3,1.5-2.8,2.7l-7.4,18c-0.5,1.2-0.5,2.7,0,3.9c0.5,1.3,1.5,2.3,2.7,2.8c1.2,0.5,2.7,0.5,3.9,0c1.3-0.5,2.3-1.5,2.8-2.7
		l7.4-18C125.1,27,123.9,24,121.3,22.9 M57.7,34.9c-1.2-0.5-2.7-0.5-3.9,0c-2.6,1.1-3.9,4-2.8,6.6l3.9,9.7c1.1,2.6,4,3.9,6.6,2.8h0
		c1.3-0.5,2.3-1.5,2.8-2.7c0.5-1.2,0.5-2.6,0-3.9l-3.9-9.7C60,36.4,59,35.4,57.7,34.9"/>
</g>
</svg>
