<?xml version="1.0" encoding="UTF-8" standalone="no"?>
<svg
   width="88.93mm"
   height="31.71mm"
   viewBox="0 0 252.08 89.88"
   version="1.1"
   id="svg132"
   xmlns="http://www.w3.org/2000/svg"
   xmlns:svg="http://www.w3.org/2000/svg">
  <defs
     id="defs4">
    <style
       id="style2">
      .a {
        fill: #03abd9;
      }
    </style>
  </defs>
  <g
     id="g106">
    <path
       class="a"
       d="M71.31,473.32a2.7,2.7,0,0,1-2.76-2.87,2.73,2.73,0,0,1,2.81-2.89,3.75,3.75,0,0,1,1.79.48l.5-.84a4.22,4.22,0,0,0-2.34-.67,3.78,3.78,0,0,0-3.91,4,3.7,3.7,0,0,0,3.87,3.85,4.29,4.29,0,0,0,2.47-.76l-.58-.79a3.56,3.56,0,0,1-1.85.53"
       transform="translate(-67.07 -387.63)"
       id="path6" />
    <path
       class="a"
       d="M79.08,466.53a3.16,3.16,0,0,0-2.67,1.27h0V463H75.25v11.17H76.4v-4.31a2.32,2.32,0,0,1,2.46-2.3c1.38,0,2,.94,2,2.34v4.27H82v-4.54a2.81,2.81,0,0,0-3-3.12"
       transform="translate(-67.07 -387.63)"
       id="path8" />
    <path
       class="a"
       d="M84.19,474.19h1.15v-7.5H84.19Z"
       transform="translate(-67.07 -387.63)"
       id="path10" />
    <path
       class="a"
       d="M84.77,463.41a.82.82,0,1,0,.81.82.82.82,0,0,0-.81-.82"
       transform="translate(-67.07 -387.63)"
       id="path12" />
    <path
       class="a"
       d="M88.71,472.18V463H87.57v9.7a1.44,1.44,0,0,0,1.49,1.62l.16-.91c-.41-.19-.51-.56-.51-1.25"
       transform="translate(-67.07 -387.63)"
       id="path14" />
    <path
       class="a"
       d="M96.83,467.83h0a3.12,3.12,0,0,0-2.62-1.3,3.63,3.63,0,0,0-3.6,4,3.56,3.56,0,0,0,3.56,3.86A3.23,3.23,0,0,0,96.88,473l.12,1.23h1V463H96.83Zm-2.52,5.49a2.58,2.58,0,0,1-2.55-2.86,2.6,2.6,0,0,1,2.56-2.89,2.56,2.56,0,0,1,2.54,2.84,2.62,2.62,0,0,1-2.55,2.91"
       transform="translate(-67.07 -387.63)"
       id="path16" />
    <path
       class="a"
       d="M101.35,472.18V463h-1.14v9.7a1.44,1.44,0,0,0,1.49,1.62l.15-.91c-.4-.19-.5-.56-.5-1.25"
       transform="translate(-67.07 -387.63)"
       id="path18" />
    <path
       class="a"
       d="M103.71,474.19h1.15v-7.5h-1.15Z"
       transform="translate(-67.07 -387.63)"
       id="path20" />
    <path
       class="a"
       d="M104.29,463.41a.82.82,0,1,0,.81.82.82.82,0,0,0-.81-.82"
       transform="translate(-67.07 -387.63)"
       id="path22" />
    <path
       class="a"
       d="M110.9,466.53a3.16,3.16,0,0,0-2.69,1.33l-.12-1.17h-1v7.5h1.15V470a2.29,2.29,0,0,1,2.39-2.38c1.33,0,2,.87,2,2.22v4.39h1.15v-4.54c0-1.89-1-3.12-2.9-3.12"
       transform="translate(-67.07 -387.63)"
       id="path24" />
    <path
       class="a"
       d="M119.18,466.53a3.7,3.7,0,0,0-3.71,4,3.63,3.63,0,0,0,3.82,3.85,4.39,4.39,0,0,0,2.82-1l-.54-.76a3.87,3.87,0,0,1-2.22.72,2.55,2.55,0,0,1-2.71-2.54h6c0-.1,0-.32,0-.54a3.49,3.49,0,0,0-3.52-3.73m-2.51,3.38a2.51,2.51,0,0,1,2.52-2.37,2.34,2.34,0,0,1,2.36,2.37Z"
       transform="translate(-67.07 -387.63)"
       id="path26" />
    <path
       class="a"
       d="M124.71,472.68a.83.83,0,1,0,.84.83.84.84,0,0,0-.84-.83"
       transform="translate(-67.07 -387.63)"
       id="path28" />
    <path
       class="a"
       d="M130.76,466.53a3.91,3.91,0,1,0,3.83,3.89,3.77,3.77,0,0,0-3.83-3.89m0,6.79a2.88,2.88,0,0,1,0-5.75,2.66,2.66,0,0,1,2.67,2.85,2.71,2.71,0,0,1-2.69,2.9"
       transform="translate(-67.07 -387.63)"
       id="path30" />
    <path
       class="a"
       d="M137.46,467.91h0l-.12-1.22h-1v7.5h1.15v-3.72c0-1.52.61-2.88,2.14-2.88a2.88,2.88,0,0,1,.77.12l.17-1.06a3.3,3.3,0,0,0-.89-.12,2.33,2.33,0,0,0-2.23,1.38"
       transform="translate(-67.07 -387.63)"
       id="path32" />
    <path
       class="a"
       d="M147.24,467.9a3.13,3.13,0,0,0-2.67-1.37,3.8,3.8,0,0,0,0,7.58,3.16,3.16,0,0,0,2.66-1.32h0v.87a2.47,2.47,0,0,1-2.68,2.81,3.92,3.92,0,0,1-2.3-.74l-.57.77a4.61,4.61,0,0,0,2.94,1,3.43,3.43,0,0,0,3.76-3.59v-7.22h-1Zm-2.52,5.18a2.55,2.55,0,0,1-2.56-2.76,2.54,2.54,0,1,1,2.56,2.76"
       transform="translate(-67.07 -387.63)"
       id="path34" />
    <path
       class="a"
       d="M151.13,472.68a.83.83,0,1,0,.84.83.83.83,0,0,0-.84-.83"
       transform="translate(-67.07 -387.63)"
       id="path36" />
    <path
       class="a"
       d="M159.14,470.91a2.24,2.24,0,0,1-2.34,2.38c-1.34,0-2-.86-2-2.21v-4.39h-1.15v4.53c0,1.89,1,3.12,2.89,3.12a3,3,0,0,0,2.62-1.3l.12,1.15h1v-7.5h-1.15Z"
       transform="translate(-67.07 -387.63)"
       id="path38" />
    <path
       class="a"
       d="M168.38,466.69H166.9L164,469.6h-.33V463h-1.15v11.17h1.15v-3.57H164l3.16,3.57h1.47l-3.63-4.1Z"
       transform="translate(-67.07 -387.63)"
       id="path40" />
    <path
       class="a"
       d="M174.91,476.43h1V462.25h-1Z"
       transform="translate(-67.07 -387.63)"
       id="path42" />
    <g
       id="g104">
      <path
         class="a"
         d="M187.19,463.68c-2.42,0-3.86,1.94-3.86,5.37s1.43,5.29,3.85,5.29S191,472.46,191,469s-1.42-5.35-3.83-5.35m0,9.62c-1.72,0-2.67-1.51-2.67-4.27s1-4.29,2.67-4.29,2.67,1.53,2.67,4.29-.94,4.27-2.67,4.27"
         transform="translate(-67.07 -387.63)"
         id="path44" />
      <path
         class="a"
         d="M197.9,468.47a2.39,2.39,0,0,0,1.17-2.1,2.95,2.95,0,0,0-5.87,0,2.41,2.41,0,0,0,1.15,2.11,3,3,0,0,0-1.76,2.73,3.57,3.57,0,0,0,7.09,0,2.92,2.92,0,0,0-1.78-2.7m-3.57-2.07a1.81,1.81,0,1,1,1.8,1.65,1.64,1.64,0,0,1-1.8-1.65m1.82,6.91a2.2,2.2,0,0,1-2.4-2.11,2.18,2.18,0,0,1,2.39-2.14,2.15,2.15,0,0,1,2.36,2.11,2.18,2.18,0,0,1-2.35,2.14"
         transform="translate(-67.07 -387.63)"
         id="path46" />
      <path
         class="a"
         d="M205.1,463.68c-2.42,0-3.86,1.94-3.86,5.37s1.43,5.29,3.85,5.29,3.85-1.88,3.85-5.31-1.42-5.35-3.84-5.35m0,9.62c-1.72,0-2.67-1.51-2.67-4.27s1-4.29,2.67-4.29,2.67,1.53,2.67,4.29-.94,4.27-2.67,4.27"
         transform="translate(-67.07 -387.63)"
         id="path48" />
      <path
         class="a"
         d="M214.45,463.68c-2.42,0-3.86,1.94-3.86,5.37s1.43,5.29,3.85,5.29,3.85-1.88,3.85-5.31-1.42-5.35-3.84-5.35m0,9.62c-1.72,0-2.67-1.51-2.67-4.27s1-4.29,2.67-4.29,2.67,1.53,2.67,4.29-.94,4.27-2.67,4.27"
         transform="translate(-67.07 -387.63)"
         id="path50" />
      <path
         class="a"
         d="M227.56,463.78h-.86c-.2,1-1.49,1.45-2.61,1.45v.92a11.82,11.82,0,0,0,2.31-.2v7.2h-2.35v1h5.68v-1h-2.17Z"
         transform="translate(-67.07 -387.63)"
         id="path52" />
      <path
         class="a"
         d="M234.57,463.78h-.87c-.2,1-1.48,1.45-2.6,1.45v.92a11.88,11.88,0,0,0,2.31-.2v7.2h-2.36v1h5.69v-1h-2.17Z"
         transform="translate(-67.07 -387.63)"
         id="path54" />
      <path
         class="a"
         d="M241.57,463.78h-.86c-.2,1-1.48,1.45-2.61,1.45v.92a11.92,11.92,0,0,0,2.32-.2v7.2h-2.36v1h5.68v-1h-2.17Z"
         transform="translate(-67.07 -387.63)"
         id="path56" />
      <path
         class="a"
         d="M248.58,463.78h-.86c-.2,1-1.49,1.45-2.61,1.45v.92a12,12,0,0,0,2.32-.2v7.2h-2.36v1h5.69v-1h-2.18Z"
         transform="translate(-67.07 -387.63)"
         id="path58" />
      <path
         class="a"
         d="M89.27,454.15c-.06-.61-.14-1.23-.2-1.83a43.77,43.77,0,0,1-.42-6.09.69.69,0,0,0-.47-.76,5.56,5.56,0,0,0-1.43-.25,2.69,2.69,0,0,0-.7.09c0,.26,0,2.07,0,3.4v0c0,1.38.07,2.68,0,2.94l0,.13-.1-.08a3.9,3.9,0,0,1-1-1.4l0-.08-.11-.22a23,23,0,0,0-2.95-4.21,2,2,0,0,0-1.48-.77c-.12,0-.29,0-.47,0a6.32,6.32,0,0,0-.74-.06c-.33,0-.53.06-.62.18s0,.88.06,1.34a3.38,3.38,0,0,1,.08.39c.16,1.18.22,2.39.28,3.55,0,.87.1,1.77.19,2.65a.56.56,0,0,0,.15.32L80,454l.67.65a1.07,1.07,0,0,0,1.17.25,20.67,20.67,0,0,1-.29-6.8v-.18l.12.13a7.1,7.1,0,0,1,.88,1.25c.48.81,4.58,6.11,6.27,6.11a.53.53,0,0,0,.52-.32.73.73,0,0,0,0-.56,2.34,2.34,0,0,1-.09-.38"
         transform="translate(-67.07 -387.63)"
         id="path60" />
      <path
         class="a"
         d="M270.17,445.61a2.86,2.86,0,0,0-2.05-.34,8.14,8.14,0,0,0-.3,1c-.08.55-.09,1.1-.15,1.65s-.17,1.12-.21,1.69a9.73,9.73,0,0,0,0,1.08c0,.17,0,.33-.26.35-.49-.92-1-1.83-1.48-2.74s-.92-1.67-1.36-2.52a2.1,2.1,0,0,0-1.84-1.05,5.58,5.58,0,0,0-.71,0,.85.85,0,0,0-1,.71,2.22,2.22,0,0,0-.14.55c-.08.76-.12,1.51-.22,2.26a30.38,30.38,0,0,0-.06,5.56,2.23,2.23,0,0,0,1.82,2,.66.66,0,0,0,.79-.6,6.18,6.18,0,0,0,.05-1,31.92,31.92,0,0,1-.11-4.69c0-.25-.05-.51,0-.76,0-.51,0-1,0-1.53a2.25,2.25,0,0,1,.25-.56c.64,1.21,1.25,2.28,1.76,3.39a8,8,0,0,0,1.14,1.83,2.44,2.44,0,0,1,.22.31,9.3,9.3,0,0,0,1.66,2,3.18,3.18,0,0,0,.79.52c.69.28,1.12,0,1.16-.75,0-.57,0-1.14.05-1.72,0-1.15.12-2.3.13-3.45a6.85,6.85,0,0,1,.32-2.38.68.68,0,0,0-.28-.86"
         transform="translate(-67.07 -387.63)"
         id="path62" />
      <path
         class="a"
         d="M175.68,445.89a1.52,1.52,0,0,0-1-1,7.5,7.5,0,0,0-1.57-.12h-.41a.79.79,0,0,0-.28.1l-.13.06.11.07a1.26,1.26,0,0,1,.27.19l.14.13c.17.14.34.29.35.46s0,.26,0,.39a11.51,11.51,0,0,1,0,2.55v.06h-.06a2.77,2.77,0,0,0-.42,0,5.8,5.8,0,0,0-1.1.13,6.86,6.86,0,0,1-1.12.12,2.36,2.36,0,0,1-.54-.05h-.05v-.05c0-.23,0-.45,0-.67,0-.5,0-1,0-1.45a2,2,0,0,0-1.07-1.84,5,5,0,0,0-2.26-.59l-1.2,0c-.53,0-1,0-1.43-.06a10.41,10.41,0,0,0-3.52.32c-.43.1-.88.18-1.3.25l-.61.11-.54.1-.46.09v.08l.23.13.82.45.13.05a.49.49,0,0,1,.26.15,1,1,0,0,0,.88.39h1.89v.54l0,.87c0,.49,0,1,0,1.46,0,1.11,0,2.26.14,3.38.12,1.45.9,2.28,2.14,2.28h.32V446l0,0a2.4,2.4,0,0,1,1-.19c.21,0,.43,0,.64,0s.43,0,.65,0a3.36,3.36,0,0,0,.57-.05h.06v.06c0,.11,0,.22,0,.33s0,.45.06.67c0,.54.07,1.09.1,1.64.05,1,.11,2.12.2,3.18a20.06,20.06,0,0,0,.41,2.69,1.39,1.39,0,0,0,1.83,1.15,13.91,13.91,0,0,0,0-2.5,13,13,0,0,1,0-2.57v-.05h1.59l1,0h.27c.34,0,.36.13.39.57l0,.18a15.56,15.56,0,0,0,.28,2.16,2.17,2.17,0,0,0,2.08,1.83l.27,0c0-.12,0-.25,0-.37,0-.29-.05-.56-.06-.83s0-.46,0-.68a7.14,7.14,0,0,1,0-1.73,23,23,0,0,0,.23-4v-.44a3.45,3.45,0,0,0-.28-1.19"
         transform="translate(-67.07 -387.63)"
         id="path64" />
      <path
         class="a"
         d="M184.33,454.09a.72.72,0,0,0,0-.57,5.93,5.93,0,0,0-.23-.55,2.44,2.44,0,0,0-.1-.24,5.65,5.65,0,0,1-2.79.62l-.52,0h-.06v-.06a7,7,0,0,1,.2-2.76v0h0l.14,0,.22,0,.33,0a7.26,7.26,0,0,0,1.85-.33l.14,0a2.5,2.5,0,0,0,.41-.19l.18-.09c.32-.16.3-.47.28-.76V449a.49.49,0,0,0-.56-.46c-.42,0-.85,0-1.35.05l-.88.07-.38,0h0v-.05c0-.55-.08-1.06-.11-1.56l-.06-.84h0l.36-.06c.22,0,.43-.08.64-.1l.37,0c.83-.08,1.68-.17,2.51-.22H185c.21,0,.29,0,.3-.16a.9.9,0,0,0-.18-.62,1.16,1.16,0,0,0-.64-.29l-.66-.13a14.89,14.89,0,0,0-2.2-.29,14.41,14.41,0,0,0-1.86.13c-.41,0-.83.1-1.25.12s-.75.07-.92.55c.59.24.66.79.68,1.34v.14c0,.16,0,.33,0,.49-.07,1.3-.15,2.59-.23,3.89a3,3,0,0,0,1.32,3.08,1.12,1.12,0,0,1,.3.26,1.63,1.63,0,0,0,1.39.62h.17a11.19,11.19,0,0,0,2.6-.55.73.73,0,0,0,.47-.32"
         transform="translate(-67.07 -387.63)"
         id="path66" />
      <path
         class="a"
         d="M141.07,448.68a3.45,3.45,0,0,0-2.07-2.15,1.34,1.34,0,0,1-.52-.38c-1.19-1.2-4.63-1.74-5.48.18-1,2.27-1,5.64.94,7.44a9.48,9.48,0,0,0,.85.69A4.71,4.71,0,0,0,139,455.6a3.69,3.69,0,0,0,2.77-4,7.77,7.77,0,0,0-.66-2.95m-2.25,3.89c-.24,1.59-1.79,2.27-2.91,1.12a5.79,5.79,0,0,1-1.39-3.38,5.27,5.27,0,0,1,.52-2.65c.31-.62,1.24-1.24,1.85-.89a3.85,3.85,0,0,1,1.11,1.38,7.36,7.36,0,0,1,.82,4.42"
         transform="translate(-67.07 -387.63)"
         id="path68" />
      <path
         class="a"
         d="M151.08,445.13a4.8,4.8,0,0,0-1-.05v0a9.48,9.48,0,0,0-.4,3.14,16.68,16.68,0,0,0-.21,2.74s0,0,0,0l-.13-.13-.56-.83a27.57,27.57,0,0,0-2.55-3.44,4.09,4.09,0,0,0-1.64-1.08c-.14-.05-1.46-.31-1.42-.09s0,.28.07.41a48.86,48.86,0,0,1,.39,7.55c0,1.19,0,1.3,1,1.87l.14.05.09,0c1.47.67.87-2.1.83-2.73-.09-1.41-.06-2.83-.06-4.24v-.26c.35.42.66.85,1,1.27.69,1,1.47,1.85,2.15,2.82a9.31,9.31,0,0,0,2.37,2.63c.87.56,1.2.11,1.07-.77a22.37,22.37,0,0,1,.32-6.68,2,2,0,0,0-.27-1.34,2.06,2.06,0,0,0-1.19-.9"
         transform="translate(-67.07 -387.63)"
         id="path70" />
      <path
         class="a"
         d="M112.59,445h-.27a3.23,3.23,0,0,1-.48,0l-.15,1.24c-.22,1.8-.43,3.56-.65,5.32v0l-.21.06,0,0-.14-.18c-.1-.14-.2-.27-.29-.42s-.23-.4-.37-.67l0,0c-.18-.32-.36-.65-.56-1l-.09-.16a23.48,23.48,0,0,0-1.39-2,3.44,3.44,0,0,0-1.15-.82,2.68,2.68,0,0,0-1.16-.21l-.57,0H105l-.41,0a.38.38,0,0,0-.31.11.46.46,0,0,0-.09.38c0,.14,0,.29.07.43v0a10.17,10.17,0,0,1,.17,1.47c0,1,0,2.08,0,3v.15c0,.58,0,1.18,0,1.77a2.38,2.38,0,0,0,.36,1.51,1.41,1.41,0,0,0,1.14.52,2.1,2.1,0,0,0,.56-.08c.6-.17.78-.46.71-1.09,0-.12,0-.24,0-.36v0c0-.24-.06-.49-.07-.75,0-.84,0-1.67,0-2.47,0-.34,0-.67,0-1a2.45,2.45,0,0,0,0-.27l0-.28.09.06.06,0h0a.29.29,0,0,1,.1.08,24.19,24.19,0,0,0,3.07,3.8,7.85,7.85,0,0,0,2.21,1.5,1.29,1.29,0,0,0,.71.06.41.41,0,0,0,.27-.26,3.11,3.11,0,0,0,.07-.73v-.09c0-.29,0-.6,0-.93v-.1c0-.4,0-.82,0-1.22,0-.55,0-1.11.09-1.64v-.07l0-.49,0-.33c0-.39,0-.79.09-1.19,0-.57.11-1.14.16-1.64,0-.24,0-.49.07-.74a2.12,2.12,0,0,0-1.33-.35h-.26"
         transform="translate(-67.07 -387.63)"
         id="path72" />
      <path
         class="a"
         d="M76.42,452.92a4.38,4.38,0,0,0,.17-1.33c0-.17,0-.33,0-.48s0-.43,0-.62c0-.4,0-.75-.09-1.09l-.06-.52a6.62,6.62,0,0,0-.36-1.79,3.17,3.17,0,0,0-2.19-2l-.18,0a1,1,0,0,1-.44-.15,5.83,5.83,0,0,0-2.83-.9l-.4-.06-.45,0c-.76,0-1.06.38-1.34,1.09a9.84,9.84,0,0,0-.73,5.1,7.08,7.08,0,0,0,.84,2.77,6,6,0,0,0,1.89,1.81,4.38,4.38,0,0,0,2.52.85,4.26,4.26,0,0,0,1.78-.4,3.49,3.49,0,0,0,1.89-2.18m-3-3.14c0,.15,0,.3,0,.45A6.22,6.22,0,0,1,73,452.7a1.9,1.9,0,0,1-1.25,1.23,1.35,1.35,0,0,1-.37.06.88.88,0,0,1-.75-.41l-.11-.17a2.73,2.73,0,0,1-.39-.71,8.73,8.73,0,0,1-.42-5.15,13.41,13.41,0,0,1,.51-1.38l.07-.15a1.32,1.32,0,0,1,1.41-.75h.06c.6,0,.89.46,1.13.92a5.79,5.79,0,0,1,.48,2.49v.1c0,.21,0,.42,0,.65v.35"
         transform="translate(-67.07 -387.63)"
         id="path74" />
      <path
         class="a"
         d="M123.47,454.45a2.34,2.34,0,0,0-1.56-.56c-.16,0-.35,0-.57,0a6.28,6.28,0,0,1-.75,0,8.47,8.47,0,0,1-2.12-.3h0v0c0-.88,0-1.77,0-2.63,0-.56.12-.65.74-.68.89,0,1.8-.07,2.68-.09l1,0c-.06-.92-.39-1.26-1.28-1.36l-2.26-.24-.82-.09v-2.38h0l.86,0c.68,0,1.39,0,2.08.1.43.05.72,0,.81-.14a.26.26,0,0,0,0-.26,1.73,1.73,0,0,0-.86-.77,10.45,10.45,0,0,0-2.34-.68l-.35-.06a9.88,9.88,0,0,0-1.69-.21,1.75,1.75,0,0,0-.68.11c-.36.17-.32.38-.27.71a1.78,1.78,0,0,1,0,.35c0,.39.06.79.09,1.18a16.37,16.37,0,0,1,.11,1.72c0,.59,0,1.18,0,1.77,0,.93,0,1.88,0,2.81a1.78,1.78,0,0,0,.64,1.17l.06,0a1.37,1.37,0,0,0,.35.25,1.23,1.23,0,0,1,.33.23,4.49,4.49,0,0,0,3.11.81c.28,0,.56,0,.81,0l.48.06a6.65,6.65,0,0,0,.78.07,1.33,1.33,0,0,0,.84-.23c0-.09,0-.18,0-.27a.85.85,0,0,0-.18-.52"
         transform="translate(-67.07 -387.63)"
         id="path76" />
      <path
         class="a"
         d="M97.54,453.59h0a6.08,6.08,0,0,0-.78.11,5.58,5.58,0,0,1-.85.12h0l-.46,0c-1,0-1.06-.12-1.07-.17a18.19,18.19,0,0,1-.44-4.47,29.53,29.53,0,0,0-.15-3c0-.27-.15-.93-.46-1.14h0a3.68,3.68,0,0,0-1.53-.73.49.49,0,0,0-.4.13.43.43,0,0,0-.12.17,2.81,2.81,0,0,0,.07,1.36,3.67,3.67,0,0,1,.08.48c0,.2.05.4.07.6,0,.36.09.73.12,1.1.07.86.17,1.73.27,2.58.08.7.16,1.43.23,2.15v0a.9.9,0,0,0,.14.51c.19.18.37.37.54.56a3.45,3.45,0,0,0,1.46,1.13,17.22,17.22,0,0,0,2.8.38c.89,0,1.06-.09,1.08-.17.23-.93.11-1.33-.52-1.71"
         transform="translate(-67.07 -387.63)"
         id="path78" />
      <path
         class="a"
         d="M101.14,455.33a.38.38,0,0,0,.29-.12.75.75,0,0,0,.16-.56c0-.37,0-.75,0-1.12,0-.58,0-1.18,0-1.76l0-.91c0-1-.05-2-.15-2.93a3.46,3.46,0,0,0-1.41-2.74l0,0a3.59,3.59,0,0,0-1.51-.66c0,.18.11.35.17.51a4.65,4.65,0,0,1,.29,1.09c.1,1.19.15,2.41.19,3.58l0,.7c0,.4,0,.81,0,1.2s0,1,0,1.53a2.49,2.49,0,0,0,1.63,2.12.89.89,0,0,0,.37.1"
         transform="translate(-67.07 -387.63)"
         id="path80" />
      <path
         class="a"
         d="M241.58,453.55c-.11-.19-.23-.41-.36-.67-1.58.13-3.07.7-4.65.76a6.59,6.59,0,0,1-.18-.91,10.13,10.13,0,0,1,.06-1.23c0-.6.12-.67.7-.8a10.92,10.92,0,0,0,1.88-.53,2.65,2.65,0,0,0,1.41-1.44,3.1,3.1,0,0,0-1.39-.12,8.92,8.92,0,0,1-2.36,0,11.2,11.2,0,0,1,0-2.38c0,.12,5.55-.62,4.86-1.55a1.61,1.61,0,0,0-1.1-.68,8.39,8.39,0,0,0-2.78.11c-.71.09-1.42.2-2.14.24-.4,0-1.18-.06-1.42.35-.12.21,0,.75,0,1,0,1.23,0,2.46,0,3.69v.6c0,1.3-.15,2.88.9,3.86.4.37.63,1,1.23,1.09a6.33,6.33,0,0,0,4.12-.24c.3-.12,1.46-.67,1.18-1.19"
         transform="translate(-67.07 -387.63)"
         id="path82" />
      <path
         class="a"
         d="M198.2,444.33a9,9,0,0,0-1.86-.74,6,6,0,0,0-3.58,0,1.23,1.23,0,0,0-.82,1.57,2.51,2.51,0,0,1,.1.61c0,1.31-.06,2.61-.08,3.91,0,1.07-.07,2.14,0,3.2a2.74,2.74,0,0,0,.55,1.83,8,8,0,0,0,1.16,1,1.59,1.59,0,0,0,.94.27c.72,0,1.08-.58.76-1.18a5.64,5.64,0,0,1-.55-2.11c-.1-1-.1-2-.14-3.15a10.6,10.6,0,0,0,1,.64,1.8,1.8,0,0,0,1.81.13,4.69,4.69,0,0,0,2-2.21,3.38,3.38,0,0,0,.37-1.26,2.76,2.76,0,0,0-1.61-2.57m-.9,1.64a3.79,3.79,0,0,1-2.55,2.7c-.06-1.13-.13-2.19-.17-3.25a.74.74,0,0,1,.82-.82,6.64,6.64,0,0,1,1.61.49.65.65,0,0,1,.29.88"
         transform="translate(-67.07 -387.63)"
         id="path84" />
      <path
         class="a"
         d="M231.71,453.66c0-.49.1-1,.14-1.48a38.38,38.38,0,0,0,.27-5.05,5.62,5.62,0,0,0-.91-2.86c-.21-.32-.42-.49-.6-.49s-.46.29-.59.53a1.12,1.12,0,0,0-.06.52,2,2,0,0,0,0,.34,2.27,2.27,0,0,1,0,.45c0,.61-.1,1.33-.2,2-.13.93-.3,1.87-.46,2.78l-.09.49a.57.57,0,0,1-.11.24,1.14,1.14,0,0,0-.09.16l-.09.16-.08-.15c-.1-.19-.21-.37-.3-.55-.23-.41-.44-.79-.62-1.19s-.31-.69-.44-1-.38-.93-.61-1.37a6.06,6.06,0,0,0-1.08-1.57,2.93,2.93,0,0,0-2.3-.79h-.89c0,.21,0,.42,0,.62a10.13,10.13,0,0,1,0,1.46c-.06.54-.14,1.09-.22,1.63-.11.76-.23,1.55-.27,2.33v.26c-.06,1.14-.12,2.32.84,3.21a3,3,0,0,0,1.45.85.73.73,0,0,0,.77-.18,1,1,0,0,0,.07-.87,7.33,7.33,0,0,1-.17-2.5,3,3,0,0,0,0-.52,3,3,0,0,1,0-.52c0-.42.08-.83.14-1.31q0-.33.09-.72l0-.24.14.2.19.25.16.23a14.24,14.24,0,0,0,3.28,4.14,4.55,4.55,0,0,0,1.81,1.13l.26,0c.2,0,.47-.07.52-.67"
         transform="translate(-67.07 -387.63)"
         id="path86" />
      <path
         class="a"
         d="M219.51,449.06c-.24-.6-.47-1.13-.69-1.63a1.44,1.44,0,0,0-.16-.33.76.76,0,0,0-.24-.18,7.11,7.11,0,0,0-.79-.38l-.86-.27c-.25,0-.5-.1-.76-.13l-.8-.1a9,9,0,0,0-.93,0,1.53,1.53,0,0,0-.81.25,6.92,6.92,0,0,1-1.44.59,8.85,8.85,0,0,1-1.53.32h-.15l0-.15a13.87,13.87,0,0,1-.15-1.43,1.58,1.58,0,0,0-.62-1.12,3,3,0,0,0-1.19-.63,2.73,2.73,0,0,0-1-.14,9.1,9.1,0,0,1,.34,1.92l0,.54c0,.52,0,1.06.07,1.61v.06l-.06.07a10.8,10.8,0,0,1-2.95.64c-.05,0-.22,0-.25-.15-.09-.45-.14-.8-.22-1.26l-.17-1.36a1.31,1.31,0,0,0-.5-.94,2.79,2.79,0,0,0-1-.45,2.15,2.15,0,0,1-.63-.2.38.38,0,0,0-.38.05,8.21,8.21,0,0,1,.35,1.87c.06.66.09,1.32.09,2,0,1,0,2,0,3a20.32,20.32,0,0,0,.12,2.92,1.6,1.6,0,0,0,.67,1.25,1.77,1.77,0,0,0,1.39.24,20.64,20.64,0,0,0,.15-2.51,19.46,19.46,0,0,1,.2-2.75l0-.13.21,0,1.38-.1c.5,0,1-.08,1.48-.13l.17,0,.12,1.81a10.94,10.94,0,0,1,0,1.62,2,2,0,0,0,.35,1.24,3,3,0,0,0,1,.74.66.66,0,0,0,.58,0,.43.43,0,0,0,.2-.41v-2.36c0-.52,0-1.06,0-1.61s0-1.07,0-1.58v-.12l1.6-.48,1.52-.5.21-.07V449c0,.46.07.94.12,1.41a2.23,2.23,0,0,0,.5,1.25,9,9,0,0,0,1,1.09c.33.35.68.7,1,1a2.7,2.7,0,0,0,.76.5,2.15,2.15,0,0,0,.74.14,2.84,2.84,0,0,0,2.52-1.53c.44-1.19-.17-2.64-.65-3.8Zm-2.12,3.21a2.06,2.06,0,0,1-.79.56l-.17.07-.05-.16a6,6,0,0,1-.32-1.95v-.21a13.87,13.87,0,0,1,.26-2.25l.12-.63.19.61a14,14,0,0,0,.59,1.49,5.31,5.31,0,0,1,.42,1.57.41.41,0,0,1,0,.14,1.1,1.1,0,0,1-.27.76"
         transform="translate(-67.07 -387.63)"
         id="path88" />
      <path
         class="a"
         d="M309.76,451.63c0-.31,0-.61,0-.92s0-.7,0-1v-.12c0-.75,0-1.59-.05-2.39-.12-1.5-.57-2.06-1.9-2.39l-.15,0-.3-.07a.85.85,0,0,0-1,.24,2.63,2.63,0,0,0-.49.56c-.2.35-.4.71-.58,1l0,.07c-.18.34-.38.71-.59,1.07s-.32.5-.51.77l0,.06-.24.35-.2.29-.09-.34a8.57,8.57,0,0,0-1.5-3.37,2.31,2.31,0,0,0-1.27-.91c-.38-.08-.78-.15-1.18-.21l-.22,0h0a1.76,1.76,0,0,0-.4-.06.54.54,0,0,0-.24.05c-.17.08-.33.18-.5.28h0l-.4.24a.71.71,0,0,0-.21.15.56.56,0,0,0-.15.41c0,.84-.06,1.69-.12,2.51,0,.47-.07.89-.09,1.31,0,.26,0,.52-.06.74s-.06.72-.07,1.09a6.83,6.83,0,0,0,.06.78,4.2,4.2,0,0,1,.06,1.07c-.06.56.16.77.61,1.12s1,.75,1.35,1a.27.27,0,0,0,.17,0,.3.3,0,0,0,.17,0,.55.55,0,0,0,.09-.35c0-.35-.06-.7-.1-1.05s-.06-.58-.09-.86a17.84,17.84,0,0,1,0-3.59c0-.21,0-.43,0-.66v-.07a3.22,3.22,0,0,1,.37-1.78,1.4,1.4,0,0,1,.39-.38h0l.11-.08.14-.11.1.16a3.29,3.29,0,0,1,.35.91c0,.11.07.22.1.33a12.89,12.89,0,0,1,.43,1.63c.08.43.14.88.18,1.27l0,.28a5.34,5.34,0,0,0,1.73,3.23,2.22,2.22,0,0,0,.86.41,1,1,0,0,0,.3.06c.18,0,.35-.06.44-.51,0-.17.05-.34.07-.52v0c0-.2.05-.4.09-.61a19.74,19.74,0,0,1,1.37-4,2,2,0,0,0,.14-.34,2.4,2.4,0,0,1,.69-1l.25-.19v.31c0,.67,0,1.33,0,2v.05a26,26,0,0,0,.09,2.94,9.31,9.31,0,0,1,0,1.67c0,.28,0,.6-.05.9a2,2,0,0,0,1.26,1.67,1.55,1.55,0,0,0,.4.08c.17,0,.31-.05.34-.6s.05-1.11.05-1.62c0-.75,0-1.49,0-2.17Z"
         transform="translate(-67.07 -387.63)"
         id="path90" />
      <path
         class="a"
         d="M257.84,451.64c-.11-.58-.23-1.17-.35-1.79s-.26-1.23-.37-1.78-.24-1.18-.4-1.76a10.24,10.24,0,0,0-.59-1.72c-.09-.13-.18-.24-.26-.34l-.32-.32a.84.84,0,0,0-.58-.31,4.27,4.27,0,0,1-.79-.1,1.68,1.68,0,0,0-1.24.1,1.44,1.44,0,0,0-.62,1l-.41,1.65c-.13.51-.25,1-.37,1.58-.17.81-.34,1.62-.5,2.42l-.5,2.44c-.06.33-.11.67-.17,1s-.1.67-.15,1c.24.14.48.27.73.39a7.19,7.19,0,0,0,.86.37l.05,0a.58.58,0,0,0,.35.14h.45a.48.48,0,0,0,.37-.12.68.68,0,0,0,0-.47,2.66,2.66,0,0,1,0-.63l.06-.59c.06-.27.11-.49.13-.67s.07-.45.1-.67a1.17,1.17,0,0,1,.26-.63,1.13,1.13,0,0,1,.68-.18,2.26,2.26,0,0,0,.56-.07,6.07,6.07,0,0,1,.71-.1h.12l0,.12a4.4,4.4,0,0,1,.25,1,2.76,2.76,0,0,1-.07,1.07,1.69,1.69,0,0,0,0,.77.91.91,0,0,0,.45.6l0,0,.26.24a2.17,2.17,0,0,0,.29.24,1.17,1.17,0,0,0,.48.27h.17a1.31,1.31,0,0,0,.38-.06.52.52,0,0,0,.25-.26,1.21,1.21,0,0,0,.08-.48v-.42a7.63,7.63,0,0,0-.1-1.28c-.09-.58-.19-1.16-.3-1.73m-2.58-1.32c-.23.05-.45.1-.65.13l-.65.1-.2,0v-.19a7.3,7.3,0,0,1,.18-1.64,10,10,0,0,1,.46-1.54l.18-.52.13.54.33,1.44c.11.44.22.93.34,1.45l0,.15Z"
         transform="translate(-67.07 -387.63)"
         id="path92" />
      <path
         class="a"
         d="M280.32,445.34a.63.63,0,0,0-.34-.52,5.86,5.86,0,0,0-1.19-.37,2.27,2.27,0,0,0-.83.07.83.83,0,0,0-.44.49l-.18.45,0,.1a4.74,4.74,0,0,1-1.72,2.5l-.09.05-.09-.06a1.87,1.87,0,0,1-.61-1.34v0q0-.18-.06-.33c-.08-.37-.15-.67-.22-.93a3,3,0,0,0-.7-1.19c-.2-.23-.54-.26-1.06-.09a14.52,14.52,0,0,0,.39,2.66,4.21,4.21,0,0,0,1.21,2.05,2.5,2.5,0,0,0,1.39.79h.13a4,4,0,0,0,1.06,0,4.66,4.66,0,0,0,.5-.12,1.32,1.32,0,0,1,.41,0H278v.15a11.18,11.18,0,0,1-.5,3.69,5,5,0,0,1-1.13,2,.77.77,0,0,1-.58.2h-.08a.84.84,0,0,1-.54-.21,2.55,2.55,0,0,1-.3-.26l0,0c-.09-.07-.16-.15-.23-.2a1.29,1.29,0,0,0-.56-.28.18.18,0,0,0-.18.07s0,.05,0,.16a.41.41,0,0,1-.1.21.3.3,0,0,1,0,.06h0a2.06,2.06,0,0,0,.54.82,5,5,0,0,0,1.43,1,3.72,3.72,0,0,0,.8.29,3.45,3.45,0,0,0,.56.1,2.31,2.31,0,0,0,.92-.1,2.13,2.13,0,0,0,1.08-1,10.07,10.07,0,0,0,1-3.69q.09-.68.15-1.41c0-.44.07-.92.09-1.41,0-1,.07-2.06.1-3.22,0-.23,0-.43,0-.61a1.61,1.61,0,0,0-.05-.42"
         transform="translate(-67.07 -387.63)"
         id="path94" />
      <path
         class="a"
         d="M293.24,445.37l-.22-.15a3.45,3.45,0,0,0-2-.91H291c-.71,0-1.43.05-2.13.07h-.16c-.81,0-1.66,0-2.49.09l-.94.07h0c-.74.06-1.5.12-2.26.12a9.84,9.84,0,0,1-2.19-.22,4.84,4.84,0,0,0,0,.54.69.69,0,0,0,.33.4,8,8,0,0,0,1,.49l.25.1a4.92,4.92,0,0,1,.56.29,3.47,3.47,0,0,0,.73.35l.29,0h.05c.29,0,.36,0,.37.17a7.79,7.79,0,0,1,0,1.08h0c0,.2,0,.42,0,.63v1c0,1.06,0,2.25.09,3.4a5.48,5.48,0,0,0,.31,1.52,8.17,8.17,0,0,0,.56,1.15l.24.45a1,1,0,0,0,.63.19.39.39,0,0,0,.22,0h0a1.83,1.83,0,0,0,.26-.91,22.25,22.25,0,0,1-.18-3.57v-.33c0-.7,0-1.37.05-2v-2.56l.46-.08c.39-.06.8-.13,1.2-.17l3.44-.22h.17v.16c0,.29,0,.58,0,.85v0c0,.63,0,1.23,0,1.83a14,14,0,0,1-.24,1.6v0c0,.22-.08.44-.12.66a1.84,1.84,0,0,0,0,.25,2,2,0,0,0-.07.4l0,.24a11,11,0,0,0,0,1.28,3.43,3.43,0,0,0,.26,1.18c0,.06.05.12.08.19l0,.05a2.7,2.7,0,0,0,.55.95.48.48,0,0,0,.32.12.78.78,0,0,0,.52-.22,1.48,1.48,0,0,0,.28-1v-.08c.06-.88.2-1.75.33-2.59v0c.14-.93.29-1.88.34-2.82,0-.09,0-.19,0-.28V449c.08-1.27.18-2.84-.86-3.6"
         transform="translate(-67.07 -387.63)"
         id="path96" />
      <path
         class="a"
         d="M319.06,454.27a.34.34,0,0,0-.39-.12l-.48.12a32.05,32.05,0,0,1-3.64.71s-.06,0-.08-.14c-.09-.38-.4-2.36-.11-2.5a5.82,5.82,0,0,1,1.48-.44,5,5,0,0,0,1.37-.38,1.62,1.62,0,0,0,1-.88.73.73,0,0,0-.32-.46,3.31,3.31,0,0,0-1.19-.2,9,9,0,0,0-1.38.14l-.65.1h0a.11.11,0,0,0,0,0,.13.13,0,0,1,0-.06l-.09-.69c-.08-.58-.17-1.19-.22-1.79a.66.66,0,0,1,.17-.53,2.9,2.9,0,0,1,1.93-.45h.59c.19,0,.36,0,.48,0h.09a1.08,1.08,0,0,0,.48-.09,1.42,1.42,0,0,0,.36-.44v0a5.56,5.56,0,0,0-2.18-1.11,4.57,4.57,0,0,0-.86-.08,10.92,10.92,0,0,0-1.15.08,11.5,11.5,0,0,1-1.17.08h-.32a.47.47,0,0,0-.49.4,11.66,11.66,0,0,0-.17,3.26c0,.66,0,1.32,0,2s0,1.24,0,1.86a4.1,4.1,0,0,0,1.14,3,4,4,0,0,0,2.8,1.11h0a3.22,3.22,0,0,0,3-1.46,1.13,1.13,0,0,0,0-1"
         transform="translate(-67.07 -387.63)"
         id="path98" />
      <path
         class="a"
         d="M241.69,455.94a1.28,1.28,0,0,0-.24,1,.45.45,0,0,0,.13.23,1.31,1.31,0,0,0,1.16,0,3.15,3.15,0,0,0,1-1.45c.09-.36.2-.72.32-1.19l-.87-.88-1.48,2.29"
         transform="translate(-67.07 -387.63)"
         id="path100" />
      <path
         class="a"
         d="M127.51,455.92a1.45,1.45,0,0,0,.29-1.35,2.28,2.28,0,0,0-.24-.39c-.09-.14-.19-.28-.27-.43a.83.83,0,0,0-.75-.48c-.13.26-.28.53-.42.79a10.17,10.17,0,0,0-.68,1.46,1.54,1.54,0,0,0,0,.73.73.73,0,0,0,.71.64l.36.06.18,0c.08,0,.29-.13.84-1Z"
         transform="translate(-67.07 -387.63)"
         id="path102" />
    </g>
  </g>
  <g
     id="g130">
    <path
       class="a"
       d="M189.57,421.25h-6.91V398.79h6.91Z"
       transform="translate(-67.07 -387.63)"
       id="path108" />
    <path
       class="a"
       d="M117.57,398.75h6.91V421.2h-6.91Z"
       transform="translate(-67.07 -387.63)"
       id="path110" />
    <path
       class="a"
       d="M164.65,387.63s0,21.81,0,31.79v1.79h-5.77c-.15-.79-.31-1.59-.51-2.57-2.56,3-5.79,3.68-9.35,2.79-4.41-1.11-6.52-4.36-7.4-8.55a15.64,15.64,0,0,1,.54-8.22c2.31-7,10.85-8.05,15.41-4.11V387.63ZM157.72,410c0-2.95-1.3-5-3.53-5.41a4.54,4.54,0,0,0-5.6,3.45c-.87,3.2.39,6.49,2.9,7.28a5.58,5.58,0,0,0,2.75.14c2.28-.49,3.45-2.47,3.48-5.46"
       transform="translate(-67.07 -387.63)"
       id="path112" />
    <path
       class="a"
       d="M98.2,387.63v12.7a9.66,9.66,0,0,1,7-2c4.07.32,6.74,2.74,7.16,6.83.26,2.58.21,5.18.25,7.77s0,5.46,0,8.29H105.5v-6.46c0-2.13,0-4.25,0-6.37,0-2.6-1.12-3.8-3.33-3.8a3.56,3.56,0,0,0-3.9,3.85c-.06,4,0,7.93,0,11.89,0,.28,0,.56,0,.91h-7V387.63Z"
       transform="translate(-67.07 -387.63)"
       id="path114" />
    <path
       class="a"
       d="M67.79,405.74c1.62-4.69,6-7.58,11.32-7.49a13,13,0,0,1,8.25,2.9c-.2.35-.38.73-.6,1.09-.71,1.16-1.43,2.31-2.2,3.59-2.13-1.26-4.37-2-6.72-1.1a6.55,6.55,0,0,0-2.65,2,5.81,5.81,0,0,0,.45,7.19c2,2.22,5,2.32,8.92.23,1,1.42,2.11,2.84,3.25,4.39A13.77,13.77,0,0,1,82,421.39a13,13,0,0,1-8.55-.81,10.51,10.51,0,0,1-6.06-7.7,12,12,0,0,1-.27-2.77,15,15,0,0,1,.72-4.37"
       transform="translate(-67.07 -387.63)"
       id="path116" />
    <path
       class="a"
       d="M176.79,387.63v24.85c0,1.38,0,2.76,1.46,3.59a1.74,1.74,0,0,0,.34.17s-.63,3.87-.92,5.47a9,9,0,0,1-5.81-1.7,5.67,5.67,0,0,1-2.13-5c0-8.29,0-27.41,0-27.41Z"
       transform="translate(-67.07 -387.63)"
       id="path118" />
    <path
       class="a"
       d="M136.47,387.63s0,16.9,0,24.85c0,1.38,0,2.76,1.43,3.59a1.86,1.86,0,0,0,.36.17l-.92,5.47a8.89,8.89,0,0,1-5.8-1.7,5.68,5.68,0,0,1-2.14-5c0-8.29,0-27.41,0-27.41Z"
       transform="translate(-67.07 -387.63)"
       id="path120" />
    <path
       class="a"
       d="M194.85,398.74h5.66c.17.8.33,1.57.54,2.5a8.51,8.51,0,0,1,7.65-2.93c3.78.3,6.58,2.48,6.88,6.24.45,5.52.36,11.08.52,16.69h-7.24v-1.48c0-3.77,0-7.54,0-11.32,0-2.64-1-3.86-3.21-3.87-2.34,0-3.78,1.4-3.81,3.93,0,4.2,0,8.38,0,12.7h-7Z"
       transform="translate(-67.07 -387.63)"
       id="path122" />
    <path
       class="a"
       d="M242,412H226.84c.36,4.51,5.34,5.76,10.66,2.63l3.09,4.25a15,15,0,0,1-12.12,2.58,10.48,10.48,0,0,1-7.05-4.74c-3.47-5.52-2.22-16,7.05-18.15,7.1-1.62,13.26,3,13.54,10.29,0,1,0,2,0,3.14m-6.83-4.3c-.51-2.72-2-4-4.31-3.89a3.94,3.94,0,0,0-3.93,3.89Z"
       transform="translate(-67.07 -387.63)"
       id="path124" />
    <path
       class="a"
       d="M125.14,391.81a4.1,4.1,0,1,1-4.1-4.11,4.11,4.11,0,0,1,4.1,4.11"
       transform="translate(-67.07 -387.63)"
       id="path126" />
    <path
       class="a"
       d="M190.21,391.81a4.11,4.11,0,1,1-4.1-4.11,4.11,4.11,0,0,1,4.1,4.11"
       transform="translate(-67.07 -387.63)"
       id="path128" />
  </g>
</svg>
