<svg fill="none" height="109" preserveaspectratio="xMinYMin meet" viewBox="0 0 184 109" width="184" xmlns="http://www.w3.org/2000/svg">
<path class="bottom-text" d="M80.52 93.854a.496.496 0 0 1-.488-.49v-3.919c0-1.184-.57-1.551-1.466-1.551-.814 0-1.587.49-1.954 1.02v4.41c0 .285-.244.49-.529.49-.285 0-.529-.245-.529-.49v-5.797c0-.245.244-.49.53-.49.243 0 .488.245.488.49v.571c.447-.571 1.384-1.143 2.36-1.143 1.385 0 2.118.694 2.118 2.164v4.205a.54.54 0 0 1-.53.53ZM87.766 93.854c-.285 0-.488-.245-.488-.53v-.286c-.53.612-1.303.939-2.198.939-1.14 0-2.32-.776-2.32-2.205 0-1.47 1.18-2.204 2.32-2.204.895 0 1.669.285 2.198.898V89.24c0-.898-.733-1.388-1.67-1.388-.65 0-1.22.204-1.709.653a.439.439 0 0 1-.285.123c-.203 0-.448-.163-.448-.408 0-.123.041-.205.123-.286a3.613 3.613 0 0 1 2.483-.94c1.384 0 2.564.654 2.564 2.246v4.083c-.04.285-.285.53-.57.53Zm-.529-2.735c-.407-.53-1.099-.816-1.832-.816-.977 0-1.628.612-1.628 1.47 0 .857.651 1.428 1.628 1.428.733 0 1.425-.286 1.832-.816v-1.266ZM92 93.936c-.977 0-1.466-.572-1.466-1.551v-4.369h-.732a.452.452 0 0 1-.448-.449c0-.244.204-.449.448-.449h.732V85.73c0-.245.245-.49.53-.49.244 0 .488.245.488.49v1.388h.977c.245 0 .448.205.448.45 0 .244-.204.448-.448.448h-.977v4.124c0 .49.204.857.692.857.163 0 .367-.082.53-.082.244 0 .447.204.447.409 0 .449-.61.612-1.221.612ZM95.582 85.486a.714.714 0 0 1-.692.694.687.687 0 0 1-.692-.695c0-.367.326-.694.692-.694.367 0 .692.327.692.695Zm-.692 8.368a.496.496 0 0 1-.488-.49v-5.797c0-.244.244-.49.529-.49.244 0 .489.246.489.49v5.757c-.041.285-.245.53-.53.53ZM100.345 93.936c-2.035 0-3.257-1.551-3.257-3.51 0-1.92 1.263-3.47 3.257-3.47 2.036 0 3.257 1.55 3.257 3.47 0 1.918-1.221 3.51-3.257 3.51Zm0-6.042c-1.425 0-2.198 1.225-2.198 2.572s.814 2.572 2.198 2.572c1.425 0 2.198-1.225 2.198-2.572 0-1.388-.773-2.572-2.198-2.572ZM110.278 93.854a.496.496 0 0 1-.489-.49v-3.919c0-1.184-.61-1.551-1.465-1.551-.814 0-1.588.49-1.954 1.02v4.41c0 .285-.244.49-.529.49a.496.496 0 0 1-.489-.49v-5.797c0-.245.244-.49.529-.49.245 0 .489.245.489.49v.571c.448-.571 1.384-1.143 2.361-1.143 1.384 0 2.117.694 2.117 2.164v4.205c-.041.285-.285.53-.57.53ZM117.483 93.854c-.285 0-.488-.245-.488-.53v-.286c-.529.612-1.303.939-2.199.939-1.139 0-2.32-.776-2.32-2.205 0-1.47 1.181-2.204 2.32-2.204.896 0 1.67.285 2.199.898V89.24c0-.898-.733-1.388-1.669-1.388-.652 0-1.222.204-1.71.653a.439.439 0 0 1-.285.123c-.204 0-.448-.163-.448-.408 0-.123.041-.205.122-.286a3.615 3.615 0 0 1 2.484-.94c1.384 0 2.564.654 2.564 2.246v4.083c-.041.285-.285.53-.57.53Zm-.488-2.735c-.407-.53-1.099-.816-1.832-.816-.977 0-1.628.612-1.628 1.47 0 .857.692 1.428 1.628 1.428.733 0 1.425-.286 1.832-.816v-1.266ZM120.577 93.854a.495.495 0 0 1-.488-.49v-8.328c0-.245.244-.49.529-.49.244 0 .488.245.488.49v8.287a.54.54 0 0 1-.529.531ZM132.097 87.73l-3.053 7.39c-.407.939-1.099 1.347-1.954 1.347-.366 0-.814-.04-.814-.449 0-.286.204-.449.448-.449h.326c.407 0 .732-.163.977-.694l.447-1.02-2.524-6.124c-.04-.041-.04-.123-.04-.163 0-.245.203-.49.529-.49.203 0 .407.122.488.326l2.117 5.226 2.076-5.226a.53.53 0 0 1 .489-.326c.285 0 .529.245.529.49 0 .04 0 .122-.041.163ZM136.331 93.936c-2.035 0-3.257-1.551-3.257-3.51 0-1.92 1.262-3.47 3.257-3.47s3.257 1.55 3.257 3.47c0 1.918-1.262 3.51-3.257 3.51Zm0-6.042c-1.425 0-2.198 1.225-2.198 2.572s.814 2.572 2.198 2.572c1.425 0 2.198-1.225 2.198-2.572-.041-1.388-.814-2.572-2.198-2.572ZM146.223 93.854a.495.495 0 0 1-.488-.49v-.49c-.53.572-1.385 1.103-2.362 1.103-1.384 0-2.116-.653-2.116-2.123v-4.287c0-.244.244-.49.529-.49.244 0 .488.246.488.49v3.96c0 1.184.57 1.51 1.466 1.51.814 0 1.587-.448 1.954-1.02v-4.45c0-.244.244-.49.529-.49.244 0 .489.246.489.49v5.757c.04.285-.204.53-.489.53ZM150.497 93.936c-.977 0-1.465-.572-1.465-1.551v-4.369h-.733a.453.453 0 0 1-.448-.449c0-.244.204-.449.448-.449h.733V85.73c0-.245.244-.49.529-.49.244 0 .489.245.489.49v1.388h.977c.244 0 .447.205.447.45 0 .244-.203.448-.447.448h-.977v4.124c0 .49.203.857.692.857.162 0 .366-.082.529-.082.244 0 .448.204.448.409 0 .449-.652.612-1.222.612ZM157.825 93.854a.496.496 0 0 1-.489-.49v-3.96c0-1.183-.61-1.51-1.506-1.51-.814 0-1.547.49-1.954 1.02v4.41c0 .285-.244.49-.529.49a.496.496 0 0 1-.489-.49v-8.328c0-.245.245-.49.53-.49.244 0 .488.245.488.49v3.061c.448-.571 1.384-1.143 2.361-1.143 1.384 0 2.117.694 2.117 2.123v4.287a.54.54 0 0 1-.529.53ZM80.195 106.551c-.285 0-.489-.245-.489-.531v-.286c-.529.612-1.302.939-2.198.939-1.14 0-2.32-.776-2.32-2.205 0-1.469 1.18-2.204 2.32-2.204.896 0 1.669.286 2.198.898v-1.184c0-.898-.733-1.388-1.669-1.388-.651 0-1.221.204-1.71.653a.438.438 0 0 1-.284.123c-.204 0-.448-.163-.448-.408 0-.123.04-.204.122-.286a3.61 3.61 0 0 1 2.483-.94c1.384 0 2.565.613 2.565 2.246v4.123a.62.62 0 0 1-.57.45Zm-.489-2.736c-.407-.53-1.099-.816-1.832-.816-.977 0-1.628.612-1.628 1.469 0 .858.692 1.429 1.628 1.429.733 0 1.425-.285 1.832-.816v-1.266ZM88.092 106.551a.496.496 0 0 1-.488-.49v-.572a2.716 2.716 0 0 1-2.24 1.143c-1.71 0-2.93-1.306-2.93-3.47 0-2.123 1.22-3.51 2.93-3.51.896 0 1.71.448 2.24 1.183v-3.102c0-.245.244-.49.529-.49.244 0 .488.245.488.49v8.328c0 .245-.244.49-.529.49Zm-.53-4.899c-.365-.572-1.18-1.062-1.994-1.062-1.343 0-2.117 1.102-2.117 2.572s.815 2.572 2.117 2.572c.814 0 1.629-.449 1.995-1.061v-3.021ZM96.07 100.427l-2.32 5.634a.82.82 0 0 1-.773.489c-.326 0-.57-.204-.733-.489l-2.32-5.634c-.04-.041-.04-.123-.04-.163 0-.245.203-.49.528-.49a.53.53 0 0 1 .489.326l2.117 5.226 2.076-5.226a.53.53 0 0 1 .488-.326c.285 0 .53.245.53.49 0 .04 0 .122-.041.163ZM100.264 106.632c-2.036 0-3.257-1.551-3.257-3.511 0-1.918 1.262-3.47 3.257-3.47 1.994 0 3.256 1.552 3.256 3.47.041 1.919-1.221 3.511-3.256 3.511Zm0-6.042c-1.425 0-2.198 1.225-2.198 2.572s.814 2.572 2.198 2.572c1.424 0 2.198-1.225 2.198-2.572 0-1.388-.774-2.572-2.198-2.572ZM110.319 105.775c-.489.531-1.181.857-2.199.857-1.954 0-3.297-1.51-3.297-3.511 0-1.959 1.343-3.47 3.297-3.47 1.018 0 1.669.327 2.199.858a.37.37 0 0 1 .122.285.453.453 0 0 1-.448.449.493.493 0 0 1-.366-.163c-.408-.367-.855-.531-1.425-.531-1.425 0-2.28 1.103-2.28 2.572 0 1.47.896 2.572 2.28 2.572.529 0 1.017-.163 1.425-.571a.458.458 0 0 1 .325-.123c.244 0 .489.204.489.449a.467.467 0 0 1-.122.327ZM116.669 106.551c-.285 0-.488-.245-.488-.531v-.286c-.53.612-1.303.939-2.199.939-1.14 0-2.32-.776-2.32-2.205 0-1.469 1.18-2.204 2.32-2.204.896 0 1.669.286 2.199.898v-1.184c0-.898-.733-1.388-1.67-1.388-.651 0-1.221.204-1.709.653a.44.44 0 0 1-.285.123c-.204 0-.448-.163-.448-.408 0-.123.041-.204.122-.286a3.61 3.61 0 0 1 2.483-.94c1.384 0 2.565.613 2.565 2.246v4.123a.62.62 0 0 1-.57.45Zm-.529-2.736c-.407-.53-1.099-.816-1.832-.816-.977 0-1.628.612-1.628 1.469 0 .858.651 1.429 1.628 1.429.733 0 1.425-.285 1.832-.816v-1.266ZM124.322 105.775c-.488.531-1.18.857-2.198.857-1.954 0-3.297-1.51-3.297-3.511 0-1.959 1.343-3.47 3.297-3.47 1.018 0 1.669.327 2.198.858a.367.367 0 0 1 .122.285.452.452 0 0 1-.448.449.493.493 0 0 1-.366-.163c-.407-.367-.855-.531-1.425-.531-1.424 0-2.279 1.103-2.279 2.572 0 1.47.895 2.572 2.279 2.572.57 0 1.018-.163 1.425-.571a.462.462 0 0 1 .326-.123c.244 0 .488.204.488.449 0 .123-.04.245-.122.327ZM131.446 100.427l-3.053 7.389c-.407.939-1.099 1.347-1.954 1.347-.366 0-.814-.041-.814-.449 0-.286.203-.449.448-.449h.325c.407 0 .733-.163.977-.694l.448-1.021-2.524-6.123c-.041-.041-.041-.123-.041-.163 0-.245.204-.49.53-.49.203 0 .407.122.488.326l2.117 5.226 2.076-5.226a.529.529 0 0 1 .489-.326c.284 0 .529.245.529.49 0 .04-.041.122-.041.163ZM138.366 106.632c-.936 0-1.791-.245-2.483-.857-.081-.082-.163-.204-.163-.327 0-.245.204-.449.448-.449.122 0 .204.041.285.082.489.367 1.181.653 1.873.653 1.017 0 1.547-.49 1.547-1.143 0-1.592-4.112-.612-4.112-3.062 0-1.02.896-1.918 2.483-1.918.977 0 1.669.285 2.239.775a.439.439 0 0 1 .122.286.408.408 0 0 1-.407.408.772.772 0 0 1-.285-.081c-.407-.327-1.017-.572-1.709-.572-.896 0-1.466.449-1.466 1.062 0 1.469 4.112.489 4.112 3.061.122 1.184-.774 2.082-2.484 2.082ZM148.136 103.489h-4.803c.081 1.265.977 2.286 2.402 2.286.651 0 1.261-.204 1.791-.612a.575.575 0 0 1 .244-.082c.163 0 .407.163.407.408 0 .735-1.71 1.102-2.524 1.102-1.954 0-3.379-1.428-3.379-3.47 0-1.918 1.384-3.47 3.257-3.47 1.628 0 2.727 1.062 3.053 2.572.041.204.082.449.082.694.04.286-.204.572-.53.572Zm-2.605-2.98c-1.425 0-2.117 1.184-2.158 2.204h4.356c-.04-.98-.692-2.204-2.198-2.204ZM153.184 100.754c-.692.04-1.303.326-1.75 1.02v4.287c0 .285-.245.49-.53.49a.495.495 0 0 1-.488-.49v-5.797c0-.245.244-.49.529-.49.244 0 .489.245.489.49v.653c.407-.531 1.058-1.184 1.832-1.184.244 0 .447.204.447.49a.54.54 0 0 1-.529.531ZM160.308 100.427l-2.32 5.634a.82.82 0 0 1-.774.489c-.325 0-.57-.204-.733-.489l-2.32-5.634c-.041-.041-.041-.123-.041-.163 0-.245.204-.49.53-.49.203 0 .407.122.488.326l2.117 5.226 2.076-5.226a.529.529 0 0 1 .488-.326c.285 0 .53.245.53.49 0 .04 0 .122-.041.163ZM162.832 98.181a.715.715 0 0 1-.692.695.687.687 0 0 1-.692-.695c0-.367.325-.694.692-.694.366 0 .692.327.692.695Zm-.692 8.369a.495.495 0 0 1-.489-.489v-5.797c0-.245.245-.49.53-.49.244 0 .488.245.488.49v5.797c0 .245-.244.489-.529.489ZM169.793 105.775c-.489.531-1.181.857-2.198.857-1.954 0-3.298-1.51-3.298-3.511 0-1.959 1.344-3.47 3.298-3.47 1.017 0 1.669.327 2.198.858a.37.37 0 0 1 .122.285.452.452 0 0 1-.448.449.493.493 0 0 1-.366-.163c-.407-.367-.855-.531-1.425-.531-1.425 0-2.28 1.103-2.28 2.572 0 1.47.896 2.572 2.28 2.572.529 0 1.018-.163 1.425-.571a.459.459 0 0 1 .326-.123c.244 0 .488.204.488.449a.467.467 0 0 1-.122.327ZM176.998 103.489h-4.803c.081 1.265.977 2.286 2.401 2.286.652 0 1.262-.204 1.792-.612a.57.57 0 0 1 .244-.082c.163 0 .407.163.407.408 0 .735-1.71 1.102-2.524 1.102-1.954 0-3.379-1.428-3.379-3.47 0-1.918 1.384-3.47 3.257-3.47 1.628 0 2.727 1.062 3.053 2.572.041.204.081.449.081.694 0 .286-.244.572-.529.572Zm-2.646-2.98c-1.425 0-2.117 1.184-2.157 2.204h4.355c-.04-.98-.692-2.204-2.198-2.204Z" fill="#363337" fill-opacity=".9"></path>
<path d="M21.372 46.498c0-1.428-.407-2.49-1.222-3.143-.814-.653-1.913-1.02-3.297-1.02-.936 0-1.832.122-2.727.326-.896.245-1.67.572-2.32 1.061V67.81c-.448.122-1.181.285-2.199.408a25.13 25.13 0 0 1-3.094.204c-1.017 0-1.913-.082-2.727-.204-.814-.123-1.506-.408-2.036-.817-.57-.408-.977-.98-1.262-1.714-.284-.735-.447-1.633-.447-2.817v-20.82c0-1.266.244-2.286.814-3.062.53-.776 1.262-1.51 2.198-2.164 1.588-1.102 3.542-2 5.903-2.694 2.36-.694 5.007-1.062 7.938-1.062 5.21 0 9.24 1.144 12.05 3.43 2.808 2.286 4.233 5.47 4.233 9.552v21.719c-.448.122-1.18.285-2.198.408a25.13 25.13 0 0 1-3.094.204 18.13 18.13 0 0 1-2.728-.204c-.814-.123-1.506-.408-2.035-.817-.57-.408-.977-.98-1.262-1.714-.285-.735-.448-1.633-.448-2.817v-16.33h-.04ZM43.395 59.276c-.53-1.143-1.059-2.449-1.629-3.878a79.878 79.878 0 0 1-1.79-4.94c-.611-1.837-1.263-3.96-1.955-6.368a231.92 231.92 0 0 1-2.117-8.247c.652-.653 1.507-1.224 2.606-1.714s2.28-.735 3.582-.735c1.628 0 2.972.327 4.03 1.02 1.059.654 1.832 1.92 2.361 3.797l5.455 19.106h.285c.57-1.592 1.1-3.307 1.628-5.144.53-1.837 1.059-3.756 1.547-5.715.489-1.96.977-3.92 1.425-5.92.448-1.96.814-3.878 1.14-5.797 1.669-.898 3.5-1.306 5.455-1.306 1.628 0 2.971.326 4.03 1.02 1.058.695 1.587 1.878 1.587 3.593 0 1.265-.162 2.694-.488 4.327a64.215 64.215 0 0 1-1.262 5.226 77.638 77.638 0 0 1-1.873 5.715c-.732 1.96-1.465 3.92-2.239 5.797-.773 1.919-1.587 3.674-2.401 5.389a56.933 56.933 0 0 1-2.443 4.531c-1.303 2.287-2.483 4.124-3.582 5.552-1.1 1.43-2.158 2.572-3.175 3.348-1.018.816-2.036 1.347-3.053 1.674a11.702 11.702 0 0 1-3.176.449c-1.954 0-3.5-.572-4.722-1.756-1.221-1.143-1.913-2.653-2.157-4.531A61.912 61.912 0 0 0 44.9 69.93a56.463 56.463 0 0 0 4.03-4.327c-.773-.245-1.628-.775-2.524-1.633-.977-.735-1.954-2.368-3.012-4.695ZM88.051 33.067c2.484 0 4.763.245 6.84.776 2.035.49 3.785 1.266 5.251 2.327a10.435 10.435 0 0 1 3.338 3.96c.773 1.592 1.18 3.47 1.18 5.674v15.554c0 1.225-.325 2.205-1.017 2.94-.652.775-1.466 1.429-2.402 1.96-3.013 1.796-7.206 2.694-12.66 2.694-2.443 0-4.641-.245-6.595-.694-1.954-.45-3.664-1.143-5.048-2.082a9.691 9.691 0 0 1-3.257-3.552c-.773-1.429-1.14-3.103-1.14-4.98 0-3.185.937-5.634 2.85-7.349 1.873-1.715 4.804-2.776 8.793-3.184l9.037-.98v-.49c0-1.347-.57-2.286-1.75-2.898-1.18-.572-2.89-.858-5.089-.858a23.8 23.8 0 0 0-5.129.572c-1.669.367-3.175.816-4.478 1.388-.61-.408-1.099-1.062-1.506-1.919a6.164 6.164 0 0 1-.61-2.653c0-1.184.284-2.164.854-2.899.57-.735 1.466-1.347 2.646-1.837 1.344-.53 2.931-.898 4.722-1.102a38.958 38.958 0 0 1 5.17-.368Zm.53 27.312c.773 0 1.628-.082 2.605-.245.936-.164 1.628-.368 2.117-.654v-5.552l-4.967.409c-1.302.081-2.36.367-3.175.816-.814.45-1.262 1.143-1.262 2.082 0 .94.367 1.674 1.059 2.245.732.613 1.913.899 3.623.899ZM138.855 57.807c0 3.51-1.303 6.287-3.949 8.246-2.646 2-6.513 2.98-11.642 2.98-1.954 0-3.745-.122-5.414-.408-1.669-.286-3.094-.694-4.275-1.266-1.18-.571-2.117-1.306-2.768-2.204a5.187 5.187 0 0 1-1.018-3.144c0-1.102.245-2.04.692-2.816.448-.776 1.018-1.388 1.669-1.92 1.344.736 2.891 1.389 4.6 2.001 1.71.572 3.746.857 5.984.857 1.425 0 2.524-.204 3.298-.612.773-.408 1.14-.98 1.14-1.674 0-.653-.285-1.143-.815-1.51-.569-.368-1.465-.653-2.768-.898l-2.076-.408c-4.03-.776-7.002-2.042-8.955-3.715-1.954-1.674-2.931-4.124-2.931-7.267 0-1.715.366-3.266 1.099-4.654.732-1.388 1.791-2.531 3.093-3.47 1.344-.939 2.931-1.633 4.804-2.164a24.459 24.459 0 0 1 6.188-.775c1.709 0 3.297.122 4.803.367 1.506.245 2.809.653 3.908 1.143 1.099.49 1.995 1.184 2.646 1.96.651.816.977 1.755.977 2.898 0 1.062-.203 1.96-.57 2.735a6.418 6.418 0 0 1-1.506 1.92c-.366-.246-.936-.49-1.669-.736a28.506 28.506 0 0 0-2.402-.694 60.397 60.397 0 0 0-2.646-.53c-.895-.123-1.71-.205-2.442-.205-1.506 0-2.687.164-3.542.531-.814.327-1.262.898-1.262 1.633 0 .49.244.939.692 1.266.448.326 1.344.612 2.646.898l2.158.49c4.437 1.02 7.571 2.408 9.444 4.205 1.873 1.796 2.809 4.123 2.809 6.94Z" fill="#363337"></path>
<path d="M125.381 14.33c-.448.04-.937.162-1.425.326a7.345 7.345 0 0 0-1.425.653 8.875 8.875 0 0 0-1.343.939c-.407.367-.815.776-1.181 1.225a8.224 8.224 0 0 0-1.221 2.04c-.285.695-.448 1.389-.448 2.042 0 .653.081 1.306.366 1.837.245.572.652 1.02 1.181 1.388.163.123.366.204.529.286.204.082.407.163.611.204.203.04.407.082.651.122.204.041.448.041.651 0 .489 0 1.018-.122 1.507-.244a8.381 8.381 0 0 0 1.547-.654 10.59 10.59 0 0 0 1.465-1.02c.448-.409.896-.858 1.262-1.347.57-.735.977-1.47 1.221-2.246.244-.735.367-1.47.326-2.123a4.4 4.4 0 0 0-.529-1.796c-.326-.49-.774-.939-1.344-1.225a7.913 7.913 0 0 0-.57-.245 1.625 1.625 0 0 0-.61-.122c-.204-.04-.407-.04-.611-.04-.203-.042-.407 0-.61 0Z" fill="#9B0384"></path>
<path d="M139.343 2.286c-.122 0-.244.041-.407.082-.122.04-.244.04-.407.081-.122.041-.285.082-.407.123-.122.04-.285.082-.407.122-.773.286-1.465.694-2.117 1.143-.651.45-1.18 1.021-1.628 1.593a7.67 7.67 0 0 0-1.059 1.837 4.592 4.592 0 0 0-.284 1.918c.04.531.203 1.021.447 1.43.245.408.57.775.977 1.06.407.286.896.49 1.466.613.529.123 1.14.163 1.791.082.122 0 .285-.041.407-.041.122-.04.285-.04.448-.082.163-.04.285-.081.448-.122.162-.041.285-.082.447-.123a7.898 7.898 0 0 0 2.321-1.224 7.161 7.161 0 0 0 1.75-1.756 6.207 6.207 0 0 0 1.018-2c.203-.694.244-1.347.122-2-.122-.531-.326-.98-.611-1.348-.285-.367-.692-.694-1.099-.939a3.616 3.616 0 0 0-1.465-.449c-.529-.122-1.14-.122-1.751 0Z" fill="#00396E"></path>
<path d="M157.296.163c-.57.082-1.181.245-1.751.408-.57.205-1.099.45-1.628.735-.529.286-1.018.613-1.425 1.02a6.879 6.879 0 0 0-1.18 1.266c-.489.694-.815 1.388-.977 2.082-.163.694-.163 1.388 0 2 .162.654.488 1.226.936 1.756.488.531 1.099.94 1.913 1.225.244.082.529.163.774.245.285.082.529.122.814.122a6 6 0 0 0 .855.041c.285 0 .569 0 .854-.04.611-.041 1.262-.205 1.873-.368a9.893 9.893 0 0 0 1.791-.776c.57-.326 1.099-.694 1.588-1.102.488-.408.895-.898 1.262-1.429a5.31 5.31 0 0 0 .936-2.245 3.978 3.978 0 0 0-.204-2.082c-.244-.653-.651-1.184-1.18-1.674-.529-.449-1.221-.816-2.035-1.061-.245-.082-.53-.123-.774-.164a4.992 4.992 0 0 0-.814-.081h-.814c-.285.04-.57.081-.814.122Z" fill="#59AD22"></path>
<path d="M171.625 9.757c-.204 0-.367.04-.57.081-.204.041-.367.041-.57.082-.204.041-.366.082-.57.123-.203.04-.366.122-.57.163a9.273 9.273 0 0 0-2.768 1.388 7.579 7.579 0 0 0-1.954 2 6.55 6.55 0 0 0-.977 2.409c-.122.857-.081 1.715.204 2.572.244.735.61 1.388 1.099 1.96a6.717 6.717 0 0 0 1.832 1.51 9.196 9.196 0 0 0 2.361.939c.854.204 1.791.286 2.768.245.203 0 .407-.041.61-.041.204 0 .407-.04.611-.082l.611-.122c.203-.041.407-.082.61-.164a9.731 9.731 0 0 0 3.135-1.51 8.47 8.47 0 0 0 2.117-2.245c.488-.858.814-1.756.854-2.654a4.858 4.858 0 0 0-.529-2.694c-.325-.735-.814-1.347-1.425-1.878a7.33 7.33 0 0 0-1.994-1.306 9.101 9.101 0 0 0-2.402-.695 9.846 9.846 0 0 0-2.483-.081Z" fill="#FDCA00"></path>
<path d="M173.375 31.149c-.814 0-1.628.122-2.402.285-.773.205-1.506.45-2.198.817-.692.367-1.343.816-1.913 1.306a9.266 9.266 0 0 0-1.506 1.796 8.137 8.137 0 0 0-1.14 3.144 9.104 9.104 0 0 0 .244 3.307 9.955 9.955 0 0 0 1.588 3.143 10.56 10.56 0 0 0 2.931 2.572c.366.204.773.408 1.18.612.407.164.814.327 1.222.45.407.122.814.244 1.262.285.407.082.854.123 1.261.164.937.04 1.832 0 2.728-.164a8.796 8.796 0 0 0 2.524-.857 11.194 11.194 0 0 0 2.157-1.47 8.964 8.964 0 0 0 1.629-2.082 8.204 8.204 0 0 0 .977-3.592 7.981 7.981 0 0 0-.692-3.511c-.448-1.102-1.181-2.164-2.036-3.062a11.049 11.049 0 0 0-3.175-2.204 13.03 13.03 0 0 0-1.14-.45c-.407-.122-.773-.244-1.18-.326a10.306 10.306 0 0 0-1.181-.163h-1.14Z" fill="#E84A2A"></path>
<path d="M154.365 47.438h-.611c-.204 0-.407 0-.611.04-.203 0-.407.041-.61.082l-.611.122a9.518 9.518 0 0 0-3.134 1.43c-.937.652-1.71 1.51-2.321 2.49-.61.98-1.099 2.082-1.343 3.266-.285 1.183-.326 2.49-.163 3.796.163 1.102.448 2.164.896 3.103.447.98 1.058 1.837 1.75 2.612a9.05 9.05 0 0 0 2.402 1.92c.895.49 1.913.856 2.931 1.02.203.04.448.04.692.081.244 0 .448.041.692.041.244 0 .448 0 .692-.04.244 0 .448-.041.692-.082 1.343-.245 2.524-.776 3.582-1.51a9.198 9.198 0 0 0 2.565-2.9 10.017 10.017 0 0 0 1.262-3.755c.163-1.347.122-2.735-.244-4.123a10.846 10.846 0 0 0-1.303-3.062c-.57-.898-1.221-1.674-1.995-2.327a9.195 9.195 0 0 0-2.483-1.51 7.09 7.09 0 0 0-2.727-.694Z" fill="#00A6EA"></path>
</svg>